<svg xmlns="http://www.w3.org/2000/svg" width="48" height="48" viewBox="0 0 48 48">
    <g fill="none" fill-rule="evenodd">
        <path fill="#E0E0E3" d="M43 34H5c-.552 0-1-.448-1-1V7c0-.552.448-1 1-1h38c.552 0 1 .448 1 1v26c0 .552-.448 1-1 1"/>
        <path fill="#585A6C" d="M8 28L10 28 10 12 8 12zM16 28L20.218 28 20.218 12 16 12zM22 28L26.218 28 26.218 12 22 12zM32 28L36.218 28 36.218 12 32 12zM12 28L14 28 14 12 12 12zM28 28L30 28 30 12 28 12zM38 28L40 28 40 12 38 12z"/>
        <path fill="#50A4FA" d="M24 31c0 6.074 4.926 11 11 11s11-4.926 11-11-4.926-11-11-11-11 4.926-11 11"/>
        <path fill="#FFF" d="M40 30h-4v-4c0-.552-.448-1-1-1s-1 .448-1 1v4h-4c-.552 0-1 .448-1 1s.448 1 1 1h4v4c0 .552.448 1 1 1s1-.448 1-1v-4h4c.552 0 1-.448 1-1s-.448-1-1-1"/>
    </g>
</svg>
