<svg xmlns="http://www.w3.org/2000/svg" xmlns:xlink="http://www.w3.org/1999/xlink" width="24" height="24" viewBox="0 0 24 24">
    <defs>
        <path id="hqr5hkqy8a" d="M5.25 8.67c.69 0 1.25.56 1.25 1.25v5.831c0 .69-.56 1.25-1.25 1.25S4 16.441 4 15.751V9.92c0-.69.56-1.25 1.25-1.25zm14.163 0c.69 0 1.25.56 1.25 1.25v5.831c0 .69-.56 1.25-1.25 1.25s-1.25-.56-1.25-1.25V9.92c0-.69.56-1.25 1.25-1.25zm-2.5 0c.23 0 .417.186.417.416v6.665c0 .99-.696 1.844-1.666 2.042v2.957c0 .69-.56 1.25-1.25 1.25s-1.25-.56-1.25-1.25v-2.916h-1.666v2.916c0 .69-.56 1.25-1.25 1.25s-1.25-.56-1.25-1.25v-2.957c-.97-.198-1.666-1.052-1.665-2.042V9.086c0-.23.186-.416.416-.416h9.165zM15.36 3.73c1.237.819 1.978 2.206 1.97 3.69 0 .23-.186.416-.416.416H7.749c-.23 0-.417-.187-.417-.417-.007-1.483.734-2.87 1.97-3.69L8.289 2.716c-.156-.161-.156-.417 0-.578.16-.166.424-.17.59-.01L10.06 3.31c1.45-.63 3.094-.63 4.543 0l1.183-1.183.01-.01c.166-.16.43-.155.59.01.16.166.155.43-.01.59L15.36 3.73zm-5.111 2.44c.23 0 .416-.187.416-.417 0-.23-.186-.417-.416-.417-.23 0-.417.187-.417.417 0 .23.186.416.417.416zm4.165 0c.23 0 .417-.187.417-.417 0-.23-.187-.417-.417-.417-.23 0-.416.187-.416.417 0 .23.186.416.416.416z"/>
    </defs>
    <g fill="none" fill-rule="evenodd">
        <mask id="bazwte3rbb" fill="#fff">
            <use xlink:href="#hqr5hkqy8a"/>
        </mask>
        <use fill="#4CAF50" fill-rule="nonzero" xlink:href="#hqr5hkqy8a"/>
        <path fill="#292A2F" d="M0 0H24V24H0z" mask="url(#bazwte3rbb)"/>
    </g>
</svg>
