<svg xmlns="http://www.w3.org/2000/svg" width="149" height="44" viewBox="0 0 149 44">
    <g fill="none" fill-rule="evenodd">
        <g>
            <g>
                <g>
                    <g transform="translate(-1553 -7470) translate(0 7344) translate(1394 80) translate(159 46)">
                        <rect width="148" height="43" x=".5" y=".5" fill="#000" stroke="#A6A6A6" rx="6"/>
                        <path fill="#FFF" d="M56.897 33.791h2.491l-5.454-15.105h-2.522L45.958 33.79h2.407l1.393-4.01h5.757l1.382 4.01zm-4.344-12.363h.178l2.187 6.386h-4.564l2.199-6.386zm13.441.775c-1.549 0-2.889.775-3.58 2.073h-.167v-1.884H60.08v15.094h2.25v-5.422h.178c.597 1.204 1.885 1.916 3.507 1.916 2.879 0 4.71-2.272 4.71-5.894 0-3.622-1.831-5.883-4.73-5.883zm-.638 9.756c-1.885 0-3.067-1.486-3.067-3.862 0-2.387 1.182-3.874 3.077-3.874 1.905 0 3.046 1.455 3.046 3.863 0 2.418-1.14 3.873-3.056 3.873zm12.31-9.756c-1.549 0-2.888.775-3.58 2.073h-.167v-1.884h-2.167v15.094h2.25v-5.422h.179c.597 1.204 1.884 1.916 3.507 1.916 2.878 0 4.71-2.272 4.71-5.894 0-3.622-1.832-5.883-4.731-5.883zm-.638 9.756c-1.884 0-3.067-1.486-3.067-3.862 0-2.387 1.183-3.874 3.078-3.874 1.905 0 3.046 1.455 3.046 3.863 0 2.418-1.141 3.873-3.057 3.873zm10.135-2.23c.167 2.701 2.418 4.429 5.767 4.429 3.58 0 5.82-1.811 5.82-4.7 0-2.272-1.276-3.528-4.375-4.25l-1.664-.409c-1.968-.46-2.764-1.078-2.764-2.156 0-1.361 1.235-2.25 3.088-2.25 1.759 0 2.973.868 3.193 2.26h2.282c-.136-2.544-2.376-4.334-5.444-4.334-3.297 0-5.495 1.79-5.495 4.48 0 2.22 1.245 3.539 3.978 4.177l1.947.472c2 .47 2.878 1.162 2.878 2.313 0 1.34-1.381 2.313-3.266 2.313-2.02 0-3.423-.91-3.622-2.344h-2.323zm13.525-10.101v2.816h-1.874v1.895h1.874v6.437c0 2.199.994 3.078 3.496 3.078.44 0 .848-.052 1.204-.115v-1.874c-.314.031-.492.052-.837.052-1.12 0-1.613-.523-1.613-1.716v-5.862h2.555v-1.895h-2.555v-2.816h-2.25zm10.385 12.384c-1.958 0-3.057-1.435-3.057-3.926 0-2.47 1.1-3.915 3.057-3.915 1.947 0 3.056 1.445 3.056 3.915 0 2.481-1.11 3.926-3.056 3.926zm0 1.999c3.329 0 5.37-2.23 5.37-5.925 0-3.674-2.052-5.914-5.37-5.914-3.33 0-5.38 2.24-5.38 5.914 0 3.695 2.04 5.925 5.38 5.925zm6.396-.22h2.251v-6.73c0-1.602 1.204-2.68 2.9-2.68.376 0 1.067.073 1.245.136v-2.22c-.24-.063-.67-.094-.994-.094-1.487 0-2.743.817-3.067 1.937h-.168v-1.748h-2.167v11.4zm11.463-9.704c1.665 0 2.754 1.162 2.806 2.952h-5.757c.125-1.78 1.287-2.952 2.951-2.952zm2.795 6.627c-.418.89-1.35 1.381-2.71 1.381-1.801 0-2.963-1.266-3.036-3.266v-.125h8.05v-.785c0-3.58-1.916-5.747-5.088-5.747-3.214 0-5.255 2.313-5.255 5.956 0 3.643 2 5.883 5.265 5.883 2.607 0 4.428-1.256 4.941-3.297h-2.167zM48.067 6.895v7.193h2.597c2.143 0 3.385-1.32 3.385-3.619 0-2.263-1.251-3.574-3.385-3.574h-2.597zm1.117 1.017h1.355c1.49 0 2.373.947 2.373 2.572 0 1.65-.867 2.587-2.373 2.587h-1.355V7.912zm8.794 5.329c-.932 0-1.456-.683-1.456-1.87 0-1.176.524-1.864 1.456-1.864.927 0 1.455.688 1.455 1.864 0 1.182-.528 1.87-1.455 1.87zm0 .952c1.585 0 2.557-1.062 2.557-2.822 0-1.75-.977-2.816-2.557-2.816-1.585 0-2.562 1.067-2.562 2.816 0 1.76.972 2.822 2.562 2.822zM68.935 8.66h-1.071l-.968 4.142h-.084L65.695 8.66h-1.027l-1.116 4.142h-.08L62.5 8.66h-1.087l1.496 5.428h1.101l1.117-3.998h.085l1.121 3.998h1.112l1.49-5.428zm1.362 5.428h1.072v-3.175c0-.848.528-1.376 1.39-1.376.798 0 1.187.434 1.187 1.306v3.245h1.072v-3.514c0-1.291-.683-2.019-1.895-2.019-.817 0-1.45.364-1.714.967h-.08V8.66h-1.032v5.428zm6.531 0H77.9V6.541h-1.072v7.547zm5.225-.847c-.932 0-1.455-.683-1.455-1.87 0-1.176.523-1.864 1.455-1.864.927 0 1.456.688 1.456 1.864 0 1.182-.529 1.87-1.456 1.87zm0 .952c1.585 0 2.557-1.062 2.557-2.822 0-1.75-.977-2.816-2.557-2.816-1.585 0-2.562 1.067-2.562 2.816 0 1.76.972 2.822 2.562 2.822zm5.873-.917c-.583 0-1.007-.284-1.007-.773 0-.479.34-.733 1.087-.783l1.326-.084v.453c0 .673-.598 1.187-1.406 1.187zm-.274.902c.713 0 1.306-.31 1.63-.853h.085v.763h1.032V10.38c0-1.146-.768-1.824-2.129-1.824-1.231 0-2.108.598-2.218 1.53h1.037c.12-.383.533-.603 1.131-.603.733 0 1.112.324 1.112.897v.47l-1.47.084c-1.292.08-2.02.643-2.02 1.62 0 .992.763 1.625 1.81 1.625zm6.511 0c.748 0 1.381-.354 1.705-.947h.085v.857h1.027V6.541h-1.072v2.981h-.08c-.294-.598-.922-.952-1.665-.952-1.37 0-2.253 1.087-2.253 2.801 0 1.72.872 2.807 2.253 2.807zm.304-4.646c.898 0 1.46.713 1.46 1.844 0 1.137-.558 1.84-1.46 1.84-.907 0-1.45-.693-1.45-1.845 0-1.141.548-1.839 1.45-1.839zm9.713 3.709c-.933 0-1.456-.683-1.456-1.87 0-1.176.523-1.864 1.456-1.864.927 0 1.455.688 1.455 1.864 0 1.182-.528 1.87-1.455 1.87zm0 .952c1.585 0 2.557-1.062 2.557-2.822 0-1.75-.977-2.816-2.557-2.816-1.586 0-2.563 1.067-2.563 2.816 0 1.76.972 2.822 2.563 2.822zm4.098-.105h1.072v-3.175c0-.848.528-1.376 1.39-1.376.798 0 1.187.434 1.187 1.306v3.245h1.072v-3.514c0-1.291-.683-2.019-1.895-2.019-.817 0-1.45.364-1.714.967h-.08V8.66h-1.032v5.428zm9.907-6.744v1.34h-.892v.903h.892v3.066c0 1.046.473 1.465 1.665 1.465.21 0 .403-.025.573-.055v-.892c-.15.015-.234.025-.399.025-.533 0-.767-.25-.767-.818V9.587h1.216v-.902h-1.216V7.344h-1.072zm3.814 6.744h1.072v-3.17c0-.823.543-1.376 1.42-1.376.808 0 1.212.439 1.212 1.306v3.24h1.072v-3.504c0-1.291-.698-2.024-1.92-2.024-.817 0-1.445.364-1.71.972h-.084v-2.99h-1.062v7.546zm8.77-4.62c.792 0 1.31.553 1.335 1.405h-2.741c.06-.847.613-1.406 1.405-1.406zm1.33 3.155c-.2.423-.643.658-1.29.658-.858 0-1.411-.604-1.446-1.556v-.06h3.833v-.373c0-1.705-.912-2.737-2.423-2.737-1.53 0-2.502 1.102-2.502 2.836 0 1.735.952 2.802 2.507 2.802 1.242 0 2.109-.598 2.353-1.57H132.1z"/>
                        <g fill="#FFF">
                            <path d="M19.738 15.37c-.033-3.651 2.99-5.428 3.128-5.51-1.712-2.496-4.365-2.837-5.298-2.864-2.228-.235-4.39 1.333-5.525 1.333-1.157 0-2.905-1.31-4.79-1.272-2.424.037-4.692 1.44-5.936 3.62-2.567 4.445-.652 10.976 1.807 14.568 1.23 1.76 2.668 3.724 4.55 3.655 1.84-.075 2.528-1.174 4.75-1.174 2.201 0 2.847 1.174 4.766 1.128 1.976-.03 3.22-1.766 4.407-3.542 1.422-2.014 1.993-4.003 2.015-4.105-.045-.014-3.836-1.46-3.874-5.837M16.113 4.633c.99-1.239 1.667-2.923 1.48-4.633-1.434.064-3.226.991-4.258 2.203-.913 1.067-1.729 2.816-1.518 4.46 1.61.12 3.262-.812 4.296-2.03" transform="translate(13.271 6.84)"/>
                        </g>
                    </g>
                </g>
            </g>
        </g>
    </g>
</svg>
