<svg xmlns="http://www.w3.org/2000/svg" width="113" height="36" viewBox="0 0 113 36">
    <g fill="#FFF" fill-rule="evenodd">
        <path d="M44.06 10.397h4.008c1.53 0 2.717.295 3.56.885.843.59 1.265 1.657 1.265 3.2 0 .935-.198 1.67-.593 2.209-.396.538-.963.872-1.703 1.002.92.13 1.611.519 2.072 1.167.46.649.69 1.538.69 2.666 0 3.087-1.53 4.63-4.591 4.63H44.06v-15.76zm4.105 13.502c.778 0 1.326-.194 1.644-.583.318-.39.477-1.006.477-1.849 0-.907-.166-1.559-.497-1.955-.33-.396-.891-.593-1.682-.593h-.856v4.98h.914zm-.097-7.14c.778 0 1.31-.175 1.595-.525.285-.35.428-.908.428-1.674 0-.7-.182-1.202-.544-1.507-.364-.305-.928-.458-1.693-.458h-.603v4.164h.817zM60.763 23.52c.187-.37.281-.879.281-1.527V14.54c0-.648-.094-1.151-.281-1.508-.189-.356-.555-.534-1.1-.534-.544 0-.91.178-1.099.534-.188.357-.282.86-.282 1.508v7.452c0 .661.09 1.174.272 1.537.181.363.552.545 1.11.545.544 0 .91-.185 1.099-.555m-4.68 1.537c-.713-.875-1.07-2.162-1.07-3.862v-5.876c0-1.699.357-2.976 1.07-3.833.713-.855 1.907-1.284 3.58-1.284 1.66 0 2.85.432 3.57 1.294.72.863 1.08 2.138 1.08 3.823v5.896c0 1.686-.36 2.967-1.08 3.842-.72.875-1.91 1.313-3.57 1.313-1.673 0-2.867-.438-3.58-1.313M68.302 17.712L65.305 10.397 68.34 10.397 70.208 14.95 71.764 10.397 74.489 10.397 71.628 18.471 74.76 26.156 71.764 26.156 69.702 21.175 67.893 26.156 65.189 26.156zM76.279 10.397L77.777 10.397 77.777 17.382 82.738 17.382 82.738 10.397 84.216 10.397 84.216 26.156 82.738 26.156 82.738 18.491 77.777 18.491 77.777 26.156 76.279 26.156zM86.96 10.397L92.66 10.397 92.66 11.545 88.458 11.545 88.458 17.459 91.882 17.459 91.882 18.549 88.458 18.549 88.458 25.047 92.699 25.047 92.699 26.156 86.96 26.156zM98.205 17.323c.947 0 1.608-.233 1.984-.7.376-.467.565-1.206.565-2.218 0-1.025-.18-1.764-.536-2.218-.357-.454-1.015-.681-1.974-.681H96.2v5.817h2.004zm-3.483-6.926h3.56c1.414 0 2.42.34 3.016 1.021.597.681.895 1.677.895 2.987 0 .999-.162 1.822-.486 2.47-.325.65-.889 1.058-1.693 1.226l2.413 8.055h-1.44l-2.315-7.743h-2.471v7.743h-1.479v-15.76zM110.404 24.317c.363-.564.544-1.39.544-2.48v-7.14c0-1.09-.179-1.907-.534-2.452-.358-.545-1.022-.817-1.995-.817-.986 0-1.66.27-2.023.807-.364.539-.545 1.36-.545 2.461v7.14c0 1.103.181 1.934.545 2.491.362.558 1.037.837 2.023.837.96 0 1.62-.282 1.985-.847m-5.127.77c-.616-.844-.924-2.038-.924-3.581v-6.537c0-1.53.311-2.701.934-3.512.622-.81 1.666-1.216 3.132-1.216 1.44 0 2.471.409 3.093 1.226.623.817.934 1.985.934 3.502v6.557c0 1.543-.305 2.733-.914 3.57-.61.836-1.648 1.254-3.113 1.254-1.479 0-2.526-.42-3.142-1.264M14.818.748L.727 8.883C.276 9.142 0 9.622 0 10.141v16.271c0 .518.277.998.727 1.258l14.09 8.136c.45.259 1.004.259 1.453 0l2.105-1.216 2.131-9.168-4.962 2.866 3.263-11.73 6.36-3.672-2.091 7.518 4.742-2.738-8.753 16.525 11.296-6.521c.45-.26.727-.74.727-1.258V10.141c0-.519-.277-.999-.727-1.258L16.27.748c-.224-.13-.475-.196-.726-.196s-.502.066-.726.196"/>
    </g>
</svg>
