<svg xmlns="http://www.w3.org/2000/svg" width="48" height="48" viewBox="0 0 48 48">
    <defs>
        <linearGradient id="ntxipyg0ra" x1="40.607%" x2="62.435%" y1="37.958%" y2="58.384%">
            <stop offset=".008%" stop-color="#CBCCD3"/>
            <stop offset="50.013%" stop-color="#F7F9FC" stop-opacity=".6"/>
            <stop offset="100%" stop-color="#CBCCD3"/>
        </linearGradient>
    </defs>
    <g fill="none" fill-rule="evenodd">
        <g>
            <g>
                <g>
                    <g>
                        <g>
                            <path fill="#4F67FF" d="M39.617 34.592L7.781 29.286c-1.084-.182-1.824-1.218-1.644-2.304L9.355 7.67c.182-1.084 1.218-1.824 2.304-1.642l31.834 5.304c1.086.182 1.826 1.218 1.646 2.302l-3.22 19.314c-.18 1.084-1.216 1.824-2.302 1.644" transform="translate(-818 -673) translate(318 423) translate(0 89) translate(500 161)"/>
                            <path fill="#50A4FA" d="M42 41.81H6c-1.1 0-2-.9-2-2v-22c0-1.1.9-2 2-2h36c1.1 0 2 .9 2 2v22c0 1.1-.9 2-2 2" transform="translate(-818 -673) translate(318 423) translate(0 89) translate(500 161)"/>
                            <path fill="#E0E0E3" d="M37.334 31.883c1.636 0 2.962 1.326 2.962 2.962 0 1.638-1.326 2.964-2.962 2.964-1.636 0-2.962-1.326-2.962-2.964 0-1.636 1.326-2.962 2.962-2.962" transform="translate(-818 -673) translate(318 423) translate(0 89) translate(500 161)"/>
                            <path fill="#CBCCD3" d="M33.777 31.883c1.636 0 2.962 1.326 2.962 2.962 0 1.638-1.326 2.964-2.962 2.964-1.636 0-2.962-1.326-2.962-2.964 0-1.636 1.326-2.962 2.962-2.962M13 31.81H9c-.55 0-1-.45-1-1v-4c0-.55.45-1 1-1h4c.55 0 1 .45 1 1v4c0 .55-.45 1-1 1" transform="translate(-818 -673) translate(318 423) translate(0 89) translate(500 161)"/>
                            <path fill="url(#ntxipyg0ra)" d="M12.6 25.81L8 30.39v.42c0 .56.438 1 1 1h.42l4.58-4.6v-.4c0-.563-.44-1-1-1h-.4z" transform="translate(-818 -673) translate(318 423) translate(0 89) translate(500 161)"/>
                            <path fill="#E0E0E3" d="M23 23.81H9c-.55 0-1-.45-1-1s.45-1 1-1h14c.55 0 1 .45 1 1s-.45 1-1 1" transform="translate(-818 -673) translate(318 423) translate(0 89) translate(500 161)"/>
                        </g>
                    </g>
                </g>
            </g>
        </g>
    </g>
</svg>
