<svg xmlns="http://www.w3.org/2000/svg" xmlns:xlink="http://www.w3.org/1999/xlink" width="24" height="24" viewBox="0 0 24 24">
    <defs>
        <path id="rzeji3i72a" d="M9.114 18.229c-.199 0-.39-.08-.53-.22L3.22 12.645c-.292-.293-.292-.768 0-1.061.293-.293.768-.293 1.061 0l4.834 4.834L20.311 5.22c.293-.293.768-.293 1.061 0 .293.293.293.768 0 1.06L9.644 18.01c-.14.14-.33.22-.53.22"/>
    </defs>
    <g fill="none" fill-rule="evenodd">
        <g>
            <g>
                <g>
                    <g>
                        <g transform="translate(-1609 -1138) translate(318 423) translate(1132 79) translate(159 636)">
                            <mask id="08vti2d3zb" fill="#fff">
                                <use xlink:href="#rzeji3i72a"/>
                            </mask>
                            <use fill="#000" xlink:href="#rzeji3i72a"/>
                            <g fill="#292A2F" mask="url(#08vti2d3zb)">
                                <path d="M0 0H24V24H0z"/>
                            </g>
                        </g>
                    </g>
                </g>
            </g>
        </g>
    </g>
</svg>
