<?xml version="1.0" encoding="UTF-8"?>
<svg width="145px" height="64px" viewBox="0 0 145 64" version="1.1" xmlns="http://www.w3.org/2000/svg" xmlns:xlink="http://www.w3.org/1999/xlink">
    <!-- Generator: Sketch 55.2 (78181) - https://sketchapp.com -->
    <title>CI</title>
    <desc>Created with Sketch.</desc>
    <g id="한글" stroke="none" stroke-width="1" fill="none" fill-rule="evenodd">
        <g id="랜딩_Ko" transform="translate(-777.000000, -7070.000000)" fill="#292A2F">
            <g id="footer" transform="translate(0.000000, 6752.000000)">
                <g id="CI" transform="translate(777.000000, 318.000000)">
                    <path d="M-1.30739863e-12,64 L-1.30739863e-12,2.06057393e-13 L144.863868,2.06057393e-13 L144.863868,64 L-1.30739863e-12,64 Z M4.02419789,59.9997996 L140.840073,59.9997996 L140.840073,3.99979965 L4.02419789,3.99979965 L4.02419789,59.9997996 Z M93.4933108,51 L92.4484465,51 L90.5274117,45.5144016 L88.6171446,51 L87.5726791,51 L85,43 L86.5501479,43 L88.1680923,48.2685598 L89.9654981,43 L91.1004918,43 L92.8978977,48.2685598 L94.5154433,43 L96.0659899,43 L93.4933108,51 Z M104.703963,46.0162376 C104.703963,44.4768317 103.54048,43.3722772 102.162027,43.3722772 C100.772345,43.3722772 99.6084604,44.4768317 99.6084604,46.0162376 C99.6084604,47.5560396 100.772345,48.6605941 102.162027,48.6605941 C103.54048,48.6605941 104.703963,47.5560396 104.703963,46.0162376 Z M106.251664,46.0162376 C106.251664,48.3817822 104.331375,50.0328713 102.162027,50.0328713 C99.9926785,50.0328713 98.071989,48.3817822 98.071989,46.0162376 C98.071989,43.6510891 99.9926785,42 102.162027,42 C104.331375,42 106.251664,43.6510891 106.251664,46.0162376 Z M110.552312,45.8938614 L111.716196,45.8938614 C112.60856,45.8938614 113.207347,45.5144554 113.207347,44.6221782 C113.207347,43.7405941 112.60856,43.350099 111.716196,43.350099 L110.552312,43.350099 L110.552312,45.8938614 Z M113.625656,49.809901 L111.862985,47.1544554 L111.795205,47.1544554 L110.552312,47.1544554 L110.552312,49.809901 L109.071989,49.809901 L109.071989,42 L111.795205,42 C113.568705,42 114.68767,43.0712871 114.68767,44.6221782 C114.68767,45.7041584 114.145032,46.5073267 113.218577,46.8978218 L115.195816,49.809901 L113.625656,49.809901 Z M120.602695,46.4071287 L119.597231,47.5227723 L119.597231,49.809901 L118.071989,49.809901 L118.071989,42 L119.597231,42 L119.597231,45.570297 L122.738354,42 L124.568404,42 L121.529551,45.3805941 L124.918531,49.809901 L123.201181,49.809901 L120.602695,46.4071287 Z M132.54048,43.6174257 L131.444776,44.2530693 C131.026468,43.639604 130.5857,43.2942574 129.919134,43.2942574 C129.286658,43.2942574 128.82343,43.6732673 128.82343,44.1976238 C128.82343,44.6550495 129.117008,44.9227723 129.794804,45.1683168 L130.337041,45.3691089 C132.020702,45.960396 132.755048,46.6855446 132.755048,47.8122772 C132.755048,49.3184158 131.297586,50.1108911 129.953224,50.1108911 C128.541082,50.1108911 127.433748,49.2851485 127.071989,48.1916832 L128.213013,47.600396 C128.495762,48.2253465 129.026769,48.7829703 129.953224,48.7829703 C130.653479,48.7829703 131.218577,48.4483168 131.218577,47.790099 C131.218577,47.1877228 130.811899,46.9089109 129.930764,46.5849505 L129.422217,46.4063366 C128.247103,45.9829703 127.354738,45.4134653 127.354738,44.1306931 C127.354738,42.8922772 128.506992,42 129.919134,42 C131.263897,42 132.145032,42.8475248 132.54048,43.6174257 Z M88.140359,26.8138614 C90.351418,26.8138614 92.1437675,25.0439604 92.1437675,22.8605941 C92.1437675,20.6768317 90.351418,18.9069307 88.140359,18.9069307 L76.1297326,18.9069307 L76.1297326,26.8138614 L88.140359,26.8138614 Z M32.0898334,42.6277228 C34.3008923,42.6277228 36.0936429,40.8578218 36.0936429,38.6744554 C36.0936429,36.4910891 34.3008923,34.7207921 32.0898334,34.7207921 L22.1823801,34.7207921 L25.1446296,26.8138614 L32.0898334,26.8138614 C34.3008923,26.8138614 36.0936429,25.0439604 36.0936429,22.8605941 C36.0936429,20.6768317 34.3008923,18.9069307 32.0898334,18.9069307 L20.0788059,18.9069307 L20.0788059,42.6277228 L32.0898334,42.6277228 Z M88.140359,11 C94.773937,11 100.151387,16.310099 100.151387,22.8605941 C100.151387,29.4106931 94.773937,34.7207921 88.140359,34.7207921 L76.1297326,34.7207921 L76.1297326,50.5346535 L68.1221136,50.5346535 L68.1221136,46.5805941 C64.7764481,49.0625743 60.6186305,50.5346535 56.1114872,50.5346535 C50.7248133,50.5346535 45.8358583,48.4332673 42.2375232,45.0158416 C40.10788,48.3318812 36.3607507,50.5346535 32.0898334,50.5346535 L12.071989,50.5346535 L12.071989,11 L32.0898334,11 C36.3607507,11 40.10788,13.2027723 42.2375232,16.5188119 C45.8358583,13.1013861 50.7248133,11 56.1118883,11 L56.1122893,11 L66.2443378,11 L63.2820883,18.9069307 L56.1114872,18.9069307 C49.4783103,18.9069307 44.1008608,24.2170297 44.1008608,30.7671287 C44.1008608,37.3176238 49.4783103,42.6277228 56.1114872,42.6277228 C61.3405435,42.6277228 65.7871262,39.3267327 67.4362963,34.7207921 L56.0613544,34.7207921 L59.0236039,26.8138614 L68.1221136,26.8138614 L68.1221136,11 L88.140359,11 Z"></path>
                </g>
            </g>
        </g>
    </g>
</svg>