<svg xmlns="http://www.w3.org/2000/svg" width="48" height="48" viewBox="0 0 48 48">
    <g fill="none" fill-rule="evenodd">
        <path fill="#CBCCD3" d="M5.5 15.5v-8C5.5 6.672 6.172 6 7 6h8c.828 0 1.5.672 1.5 1.5S15.828 9 15 9H8.5v6.5c0 .828-.672 1.5-1.5 1.5s-1.5-.672-1.5-1.5zM7 42c-.828 0-1.5-.672-1.5-1.5v-8c0-.828.672-1.5 1.5-1.5s1.5.672 1.5 1.5V39H15c.828 0 1.5.672 1.5 1.5S15.828 42 15 42H7zM38.5 15.5V9H32c-.828 0-1.5-.672-1.5-1.5S31.172 6 32 6h8c.828 0 1.5.672 1.5 1.5v8c0 .828-.672 1.5-1.5 1.5s-1.5-.672-1.5-1.5zM32 42c-.828 0-1.5-.672-1.5-1.5S31.172 39 32 39h6.5v-6.5c0-.828.672-1.5 1.5-1.5s1.5.672 1.5 1.5v8c0 .828-.672 1.5-1.5 1.5h-8z"/>
        <path fill="#FB6164" d="M43.5 25.5h-40c-.828 0-1.5-.672-1.5-1.5s.672-1.5 1.5-1.5h40c.828 0 1.5.672 1.5 1.5s-.672 1.5-1.5 1.5"/>
    </g>
</svg>
