<svg xmlns="http://www.w3.org/2000/svg" width="48" height="48" viewBox="0 0 48 48">
    <g fill="none" fill-rule="evenodd">
        <path fill="#CBCCD3" d="M42.5 44h-37c-.828 0-1.5-.672-1.5-1.5v-37C4 4.672 4.672 4 5.5 4S7 4.672 7 5.5V41h35.5c.828 0 1.5.672 1.5 1.5s-.672 1.5-1.5 1.5"/>
        <path fill="#50A4FA" d="M32 37V9c0-.552.448-1 1-1h4c.552 0 1 .448 1 1v28c0 .552-.448 1-1 1h-4c-.552 0-1-.448-1-1"/>
        <path fill="#3CB9A0" d="M22 37V15c0-.552.448-1 1-1h4c.552 0 1 .448 1 1v22c0 .552-.448 1-1 1h-4c-.552 0-1-.448-1-1"/>
        <path fill="#F5A623" d="M12 37V21c0-.552.448-1 1-1h4c.552 0 1 .448 1 1v16c0 .552-.448 1-1 1h-4c-.552 0-1-.448-1-1"/>
    </g>
</svg>
