<svg xmlns="http://www.w3.org/2000/svg" xmlns:xlink="http://www.w3.org/1999/xlink" width="24" height="24">
    <defs>
        <path id="prefix__a"
            d="M18.75 23H6.18a1.18 1.18 0 110-2.357h12.57a1.179 1.179 0 110 2.357zm.834-12.226c.46.46.46 1.207 0 1.667l-6.286 6.286a1.185 1.185 0 01-1.667 0L5.345 12.44a1.18 1.18 0 011.668-1.667l4.274 4.274V2.178a1.179 1.179 0 012.357.001v12.87l4.272-4.275a1.18 1.18 0 011.668 0z" />
        <path id="prefix__d" d="M0 0h24v24H0z" />
        <filter id="prefix__c" width="254.2%" height="254.2%" x="-77.1%" y="-72.9%" filterUnits="objectBoundingBox">
            <feOffset dy="1" in="SourceAlpha" result="shadowOffsetOuter1" />
            <feGaussianBlur in="shadowOffsetOuter1" result="shadowBlurOuter1" stdDeviation="6" />
            <feColorMatrix in="shadowBlurOuter1" values="0 0 0 0 0 0 0 0 0 0 0 0 0 0 0 0 0 0 0.12 0" />
        </filter>
    </defs>
    <g fill="none" fill-rule="evenodd">
        <mask id="prefix__b" fill="#fff">
            <use xlink:href="#prefix__a" />
        </mask>
        <use fill="#000" xlink:href="#prefix__a" />
        <g mask="url(#prefix__b)">
            <use fill="#000" filter="url(#prefix__c)" xlink:href="#prefix__d" />
            <use fill="#FFF" xlink:href="#prefix__d" />
        </g>
    </g>
</svg>