<svg xmlns="http://www.w3.org/2000/svg" width="36" height="36" viewBox="0 0 36 36">
    <g fill="none" fill-rule="evenodd">
        <path fill="#CBCCD3" d="M4.125 11.625v-6c0-.621.504-1.125 1.125-1.125h6c.621 0 1.125.504 1.125 1.125S11.871 6.75 11.25 6.75H6.375v4.875c0 .621-.504 1.125-1.125 1.125s-1.125-.504-1.125-1.125zM5.25 31.5c-.621 0-1.125-.504-1.125-1.125v-6c0-.621.504-1.125 1.125-1.125s1.125.504 1.125 1.125v4.875h4.875c.621 0 1.125.504 1.125 1.125S11.871 31.5 11.25 31.5h-6zM28.875 11.625V6.75H24c-.621 0-1.125-.504-1.125-1.125S23.379 4.5 24 4.5h6c.621 0 1.125.504 1.125 1.125v6c0 .621-.504 1.125-1.125 1.125s-1.125-.504-1.125-1.125zM24 31.5c-.621 0-1.125-.504-1.125-1.125S23.379 29.25 24 29.25h4.875v-4.875c0-.621.504-1.125 1.125-1.125s1.125.504 1.125 1.125v6c0 .621-.504 1.125-1.125 1.125h-6z"/>
        <path fill="#FB6164" d="M32.625 19.125h-30c-.621 0-1.125-.504-1.125-1.125s.504-1.125 1.125-1.125h30c.621 0 1.125.504 1.125 1.125s-.504 1.125-1.125 1.125"/>
    </g>
</svg>
