<svg xmlns="http://www.w3.org/2000/svg" width="36" height="36" viewBox="0 0 36 36">
    <g fill="none" fill-rule="evenodd">
        <path fill="#585A6C" d="M17.867 13.17v7.172l6.135 3.64c.356.214.818.095 1.028-.262l.376-.634c.212-.356.093-.816-.262-1.026l-4.9-2.906v-5.983c0-.414-.337-.75-.75-.75h-.877c-.414 0-.75.336-.75.75"/>
        <path fill="#F5A623" d="M19.829 4.505C11.77 4.293 5.193 10.757 5.193 18.758H2.252c-.67 0-1.004.808-.53 1.28l4.889 4.89.112.23 5.114-5.12c.47-.473.136-1.28-.533-1.28H8.361c0-6.85 6.218-12.254 13.316-10.872 4.323.84 7.807 4.324 8.647 8.647 1.382 7.098-4.023 13.316-10.873 13.316-2.805 0-5.36-1.05-7.308-2.765-.302-.265-.75-.268-1.034.015l-1.183 1.185c-.3.3-.302.801.013 1.085 2.519 2.266 5.849 3.648 9.504 3.648 8.024 0 14.495-6.617 14.26-14.685-.217-7.442-6.433-13.63-13.874-13.827"/>
    </g>
</svg>
