<svg xmlns="http://www.w3.org/2000/svg" width="52" height="52" viewBox="0 0 52 52">
    <g fill="none" fill-rule="evenodd">
        <path fill="#E0E0E3" d="M36.833 14.083c0 6.58-11.916 14.084-11.916 14.084S13 20.663 13 14.083c0-9.75 0-9.75 11.917-9.75 11.916 0 11.916 0 11.916 9.75"/>
        <path fill="#E0E0E3" d="M13 37.917c0-6.58 11.917-14.084 11.917-14.084s11.916 7.504 11.916 14.084c0 9.75 1.084 9.75-10.833 9.75s-13 0-13-9.75"/>
        <path fill="#F5A623" d="M24.915 30.763c3.252 3.904 9.752 3.904 9.752 11.487 0 5.417 0 5.417-9.75 5.417s-9.75 0-9.75-5.417c0-7.583 6.5-7.583 9.748-11.487"/>
        <path fill="#CBCCD3" d="M37.917 10.833h-26c-.598 0-1.084-.485-1.084-1.083V5.417c0-.598.486-1.084 1.084-1.084h26c.598 0 1.083.486 1.083 1.084V9.75c0 .598-.485 1.083-1.083 1.083M37.917 47.667h-26c-.598 0-1.084-.486-1.084-1.084V42.25c0-.598.486-1.083 1.084-1.083h26c.598 0 1.083.485 1.083 1.083v4.333c0 .598-.485 1.084-1.083 1.084"/>
        <path fill="#F5A623" d="M17.953 19.5c1.98 2.275 4.678 4.496 6.966 6.071 2.288-1.573 4.99-3.794 6.968-6.071H17.953z"/>
    </g>
</svg>
