<svg xmlns="http://www.w3.org/2000/svg" width="36" height="36" viewBox="0 0 36 36">
    <g fill="none" fill-rule="evenodd">
        <path fill="#F5A623" d="M5.343 14.718h9.375V5.343H5.343v9.375zM15.891 3H4.171C3.526 3 3 3.525 3 4.171v11.72c0 .647.525 1.171 1.171 1.171h11.72c.647 0 1.171-.524 1.171-1.171V4.171c0-.646-.524-1.171-1.171-1.171z"/>
        <path fill="#3CB9A0" d="M30.656 30.656h-7.719l7.72-7.719v7.72zm1.62-11.63c-.438-.18-.942-.082-1.276.254L19.28 31c-.336.334-.435.838-.253 1.276.181.438.607.723 1.083.723h11.718c.648 0 1.171-.523 1.171-1.171V20.11c0-.476-.285-.902-.723-1.083z"/>
        <path fill="#50A4FA" d="M25.969 14.719c-2.586 0-4.688-2.102-4.688-4.688s2.102-4.687 4.688-4.687 4.687 2.101 4.687 4.687c0 2.586-2.101 4.688-4.687 4.688m0-11.718c-3.878 0-7.03 3.153-7.03 7.03 0 3.878 3.152 7.03 7.03 7.03 3.877 0 7.03-3.152 7.03-7.03 0-3.877-3.153-7.03-7.03-7.03"/>
        <path fill="#CBCCD3" d="M16.72 20.939l-5.031 5.03 5.03 5.03c.458.459.458 1.2 0 1.658-.458.457-1.2.457-1.657 0l-5.03-5.031-5.03 5.03c-.46.458-1.2.458-1.66 0-.457-.457-.457-1.198 0-1.657l5.033-5.03-5.032-5.03c-.458-.46-.458-1.2 0-1.658.459-.457 1.2-.457 1.659 0l5.03 5.031 5.03-5.031c.458-.457 1.199-.457 1.658 0 .457.457.457 1.199 0 1.658"/>
    </g>
</svg>
