<svg xmlns="http://www.w3.org/2000/svg" width="36" height="36" viewBox="0 0 36 36">
    <g fill="none" fill-rule="evenodd">
        <path fill="#CBCCD3" d="M7.213 8.323c-1.056 0-1.914.867-1.914 1.935v15.483c0 1.068.858 1.935 1.914 1.935h21.574c1.056 0 1.914-.867 1.914-1.935V10.258c0-1.068-.858-1.935-1.914-1.935H7.213zM28.787 30H7.213c-2.324 0-4.214-1.91-4.214-4.259V10.258C3 7.911 4.89 6 7.213 6h21.574C31.111 6 33 7.91 33 10.258v15.483C33 28.091 31.111 30 28.787 30z"/>
        <path fill="#F5A623" d="M13.5 13.5c0 1.656-1.344 3-3 3s-3-1.344-3-3 1.344-3 3-3 3 1.344 3 3"/>
        <path fill="#3CB9A0" d="M8.25 25.5h19.5c.414 0 .75-.336.75-.75v-5c0-.162-.052-.32-.15-.451l-3.878-5.167c-.255-.344-.75-.402-1.078-.127l-7.867 6.557c-.299.247-.737.228-1.011-.047l-1.985-1.984c-.294-.294-.768-.294-1.062 0l-3.75 3.75c-.14.14-.219.33-.219.53v1.939c0 .414.336.75.75.75"/>
    </g>
</svg>
