<svg xmlns="http://www.w3.org/2000/svg" width="36" height="36" viewBox="0 0 36 36">
    <g fill="none" fill-rule="evenodd">

        <path fill="#BAE5DD" d="M31.5 6L22.501 22.5 12 16.5 4.5 30 4.5 33 34.5 33 34.5 6z"
            transform="translate(-798 -4884) translate(-189 3440) translate(967 1404) translate(20 40)" />
        <path fill="#3CB9A0"
            d="M5.483 30.546L3.516 29.453 11.57 14.958 22.062 20.954 30.513 5.46 32.487 6.539 22.938 24.045 12.431 18.041z"
            transform="translate(-798 -4884) translate(-189 3440) translate(967 1404) translate(20 40)" />
        <path fill="#FFF"
            d="M7.125 29.625c0-1.242-1.008-2.25-2.25-2.25s-2.25 1.008-2.25 2.25 1.008 2.25 2.25 2.25 2.25-1.008 2.25-2.25"
            transform="translate(-798 -4884) translate(-189 3440) translate(967 1404) translate(20 40)" />
        <path fill="#3CB9A0"
            d="M4.875 28.5c-.62 0-1.125.506-1.125 1.125 0 .62.505 1.125 1.125 1.125S6 30.244 6 29.625c0-.62-.505-1.125-1.125-1.125m0 4.5C3.015 33 1.5 31.485 1.5 29.625s1.515-3.375 3.375-3.375 3.375 1.515 3.375 3.375S6.735 33 4.875 33"
            transform="translate(-798 -4884) translate(-189 3440) translate(967 1404) translate(20 40)" />
        <path fill="#FFF"
            d="M14.25 16.5c0-1.242-1.008-2.25-2.25-2.25s-2.25 1.008-2.25 2.25 1.008 2.25 2.25 2.25 2.25-1.008 2.25-2.25"
            transform="translate(-798 -4884) translate(-189 3440) translate(967 1404) translate(20 40)" />
        <path fill="#3CB9A0"
            d="M12 15.375c-.62 0-1.125.505-1.125 1.125s.505 1.125 1.125 1.125 1.125-.506 1.125-1.125c0-.62-.505-1.125-1.125-1.125m0 4.5c-1.86 0-3.375-1.515-3.375-3.375S10.14 13.125 12 13.125s3.375 1.515 3.375 3.375S13.86 19.875 12 19.875"
            transform="translate(-798 -4884) translate(-189 3440) translate(967 1404) translate(20 40)" />
        <path fill="#FFF"
            d="M24.75 22.5c0-1.242-1.008-2.25-2.25-2.25s-2.25 1.008-2.25 2.25 1.008 2.25 2.25 2.25 2.25-1.008 2.25-2.25"
            transform="translate(-798 -4884) translate(-189 3440) translate(967 1404) translate(20 40)" />
        <path fill="#3CB9A0"
            d="M22.5 21.375c-.62 0-1.125.506-1.125 1.125 0 .62.506 1.125 1.125 1.125.62 0 1.125-.506 1.125-1.125 0-.62-.506-1.125-1.125-1.125m0 4.5c-1.86 0-3.375-1.515-3.375-3.375s1.515-3.375 3.375-3.375 3.375 1.515 3.375 3.375-1.515 3.375-3.375 3.375"
            transform="translate(-798 -4884) translate(-189 3440) translate(967 1404) translate(20 40)" />
        <path fill="#FFF"
            d="M33.375 6.375c0-1.242-1.008-2.25-2.25-2.25s-2.25 1.008-2.25 2.25 1.008 2.25 2.25 2.25 2.25-1.008 2.25-2.25"
            transform="translate(-798 -4884) translate(-189 3440) translate(967 1404) translate(20 40)" />
        <path fill="#3CB9A0"
            d="M31.125 5.25c-.62 0-1.125.505-1.125 1.125S30.506 7.5 31.125 7.5c.62 0 1.125-.505 1.125-1.125s-.506-1.125-1.125-1.125m0 4.5c-1.86 0-3.375-1.515-3.375-3.375S29.265 3 31.125 3 34.5 4.515 34.5 6.375 32.985 9.75 31.125 9.75"
            transform="translate(-798 -4884) translate(-189 3440) translate(967 1404) translate(20 40)" />

    </g>
</svg>