<svg xmlns="http://www.w3.org/2000/svg" width="36" height="36" viewBox="0 0 36 36">
    <g fill="none" fill-rule="evenodd">
        <path fill="#3CB9A0" d="M30.75 31.5H2.25c-.413 0-.75-.337-.75-.75V2.25c0-.413.337-.75.75-.75h28.5c.413 0 .75.337.75.75v28.5c0 .413-.337.75-.75.75"/>
        <path fill="#FFF" d="M27.75 28.5H5.25c-.412 0-.75-.337-.75-.75V5.25c0-.412.338-.75.75-.75h22.5c.413 0 .75.338.75.75v22.5c0 .413-.337.75-.75.75"/>
        <path fill="#3CB9A0" d="M24 24L19.5 24 9 9 13.5 9z"/>
        <path fill="#3CB9A0" d="M9 24L13.5 24 24 9 19.5 9z"/>
        <path fill="#4F67FF" d="M18 26.25c0 4.555 3.695 8.25 8.25 8.25s8.25-3.695 8.25-8.25S30.805 18 26.25 18 18 21.695 18 26.25"/>
        <path fill="#FFF" d="M30 25.5h-3v-3c0-.414-.336-.75-.75-.75s-.75.336-.75.75v3h-3c-.414 0-.75.336-.75.75s.336.75.75.75h3v3c0 .414.336.75.75.75s.75-.336.75-.75v-3h3c.414 0 .75-.336.75-.75s-.336-.75-.75-.75"/>
    </g>
</svg>
