<svg xmlns="http://www.w3.org/2000/svg" width="36" height="36" viewBox="0 0 36 36">
    <g fill="none" fill-rule="evenodd">
        <path fill="#E0E0E3" d="M32.25 25.5H3.75c-.414 0-.75-.336-.75-.75V5.25c0-.414.336-.75.75-.75h28.5c.414 0 .75.336.75.75v19.5c0 .414-.336.75-.75.75"/>
        <path fill="#585A6C" d="M6 21L7.5 21 7.5 9 6 9zM12 21L15.164 21 15.164 9 12 9zM16.5 21L19.663 21 19.663 9 16.5 9zM24 21L27.163 21 27.163 9 24 9zM9 21L10.5 21 10.5 9 9 9zM21 21L22.5 21 22.5 9 21 9zM28.5 21L30 21 30 9 28.5 9z"/>
        <path fill="#50A4FA" d="M18 23.25c0 4.555 3.695 8.25 8.25 8.25s8.25-3.695 8.25-8.25S30.805 15 26.25 15 18 18.695 18 23.25"/>
        <path fill="#FFF" d="M30 22.5h-3v-3c0-.414-.336-.75-.75-.75s-.75.336-.75.75v3h-3c-.414 0-.75.336-.75.75s.336.75.75.75h3v3c0 .414.336.75.75.75s.75-.336.75-.75v-3h3c.414 0 .75-.336.75-.75s-.336-.75-.75-.75"/>
    </g>
</svg>
