<svg xmlns="http://www.w3.org/2000/svg" width="36" height="36" viewBox="0 0 36 36">
    <g fill="none" fill-rule="evenodd">
        <path fill="#50A4FA" d="M6 31.07c-.83 0-1.5-.672-1.5-1.5 0-.83.67-1.5 1.5-1.5s1.5.67 1.5 1.5c0 .828-.67 1.5-1.5 1.5m27.849-17.684L22.182 1.721c-.291-.294-.768-.294-1.06 0L4.681 18.16 3.53 19.31l-1.812 1.81c-.14.142-.219.332-.219.532V33.32c0 .414.336.75.75.75h11.667c.2 0 .39-.08.531-.22l1.81-1.811 1.151-1.15 16.44-16.44c.294-.293.294-.77 0-1.063"/>
        <path fill="#FFF" d="M17.281 22.017L13.297 18.032 12.236 19.092 16.22 23.078zM22.701 16.597L18.715 12.612 16.479 14.85 20.464 18.834zM19.402 19.895L15.418 15.911 14.357 16.971 18.341 20.957zM25.195 14.103L24.135 15.163 20.149 11.178 21.21 10.117z"/>
    </g>
</svg>
