<svg xmlns="http://www.w3.org/2000/svg" width="53" height="52" viewBox="0 0 53 52">
    <g fill="none" fill-rule="evenodd">
        <path fill="#CBCCD3" d="M40.083 35.073c0 .598-.485 1.083-1.083 1.083H8.667c-.598 0-1.084-.485-1.084-1.083V16.927c0-.598.486-1.083 1.084-1.083H39c.598 0 1.083.485 1.083 1.083v18.146zM45.5 19.5h-2.167v-4.335c0-1.196-.968-2.167-2.166-2.167H6.5c-1.198 0-2.167.97-2.167 2.167v21.666C4.333 38.03 5.302 39 6.5 39h34.667c1.198 0 2.166-.969 2.166-2.167v-4.33H45.5c1.198 0 2.167-.972 2.167-2.17v-8.664c0-1.198-.969-2.167-2.167-2.167z" transform="translate(.2)"/>
        <path fill="#F5A623" d="M16.25 34.667h-4.333c-.598 0-1.084-.486-1.084-1.084V18.417c0-.598.486-1.084 1.084-1.084h4.333c.598 0 1.083.486 1.083 1.084v15.166c0 .598-.485 1.084-1.083 1.084M24.917 34.667h-4.334c-.598 0-1.083-.486-1.083-1.084V18.417c0-.598.485-1.084 1.083-1.084h4.334c.598 0 1.083.486 1.083 1.084v15.166c0 .598-.485 1.084-1.083 1.084" transform="translate(.2)"/>
    </g>
</svg>
