<svg xmlns="http://www.w3.org/2000/svg" width="36" height="36" viewBox="0 0 36 36">
    <g fill="none" fill-rule="evenodd">
        <path fill="#E0E0E3" d="M6 28.24v4.576c0 .93.745 1.684 1.665 1.684h14.669c.92 0 1.666-.754 1.666-1.684V28.24H6z"/>
        <path fill="#585A6C" d="M22.334 1.5H7.666c-.921 0-1.667.755-1.667 1.684V28.24h18V3.184c0-.93-.745-1.684-1.665-1.684"/>
        <path fill="#E0E0E3" d="M29.25 19.5h-13.5c-.414 0-.75-.336-.75-.75v-9c0-.414.336-.75.75-.75h13.5c.414 0 .75.336.75.75v9c0 .414-.336.75-.75.75"/>
        <path fill="#585A6C" d="M17.895 18L19.093 18 19.093 10.5 17.895 10.5zM22.686 18L25.212 18 25.212 10.5 22.686 10.5zM20.291 18L21.488 18 21.488 10.5 20.291 10.5zM26.291 18L27.488 18 27.488 10.5 26.291 10.5z"/>
        <path fill="#CBCCD3" d="M15.516 32.224h-1.032c-.336 0-.61-.276-.61-.615v-1.044c0-.34.274-.617.61-.617h1.032c.337 0 .609.276.609.617v1.044c0 .339-.272.615-.61.615"/>
    </g>
</svg>
