<svg xmlns="http://www.w3.org/2000/svg" width="53" height="52" viewBox="0 0 53 52">
    <g fill="none" fill-rule="evenodd">
        <path fill="#E0E0E3" d="M46.583 39H5.417c-.598 0-1.084-.485-1.084-1.083v-26c0-.598.486-1.084 1.084-1.084h41.166c.598 0 1.084.486 1.084 1.084v26c0 .598-.486 1.083-1.084 1.083" transform="translate(.6)"/>
        <path fill="#585A6C" d="M8.667 32.5L10.833 32.5 10.833 17.333 8.667 17.333zM17.333 32.5L21.903 32.5 21.903 17.333 17.333 17.333zM23.833 32.5L28.403 32.5 28.403 17.333 23.833 17.333zM34.667 32.5L39.236 32.5 39.236 17.333 34.667 17.333zM13 32.5L15.167 32.5 15.167 17.333 13 17.333zM30.333 32.5L32.5 32.5 32.5 17.333 30.333 17.333zM41.167 32.5L43.333 32.5 43.333 17.333 41.167 17.333z" transform="translate(.6)"/>
        <path fill="#FFF" fill-rule="nonzero" d="M36.833 48.148L36.833 30.333 49.833 43.257 41.936 43.257 41.767 43.395z" transform="translate(.6)"/>
        <path fill="#010101" fill-rule="nonzero" d="M37.796 33.222L37.796 45.741 41.123 42.534 41.302 42.378 46.944 42.378z" transform="translate(.6)"/>
    </g>
</svg>
