<svg xmlns="http://www.w3.org/2000/svg" width="36" height="36" viewBox="0 0 36 36">
    <g fill="none" fill-rule="evenodd">
        <path fill="#CBCCD3" d="M15.804 8.197c2.928 2.928 2.928 7.677 0 10.606-2.93 2.928-7.679 2.928-10.607 0-2.93-2.93-2.93-7.678 0-10.606 2.928-2.93 7.677-2.93 10.607 0M17.925 31.53c.732.732 1.918.732 2.652 0 .732-.73.732-1.918 0-2.652-.734-.732-1.92-.732-2.652 0-.732.734-.732 1.922 0 2.652"/>
        <path fill="#F5A623" d="M30.553 18.804c-2.928 2.928-7.677 2.928-10.606 0-2.928-2.93-2.928-7.679 0-10.607 2.93-2.93 7.678-2.93 10.607 0 2.929 2.928 2.929 7.677 0 10.607"/>
        <path fill="#F5A623" d="M17.825 31.53L7.22 20.925 19.946 8.196 30.553 18.804z"/>
        <path fill="#CBCCD3" d="M28.53 20.925L17.925 31.53 5.196 18.804 15.804 8.197z"/>
        <path fill="#CBCCD3" d="M25.88 23.576c.731.732 1.92.732 2.651 0 .732-.732.732-1.918 0-2.652-.732-.732-1.92-.732-2.652 0-.732.734-.732 1.92 0 2.652"/>
        <path fill="#CBCCD3" d="M23.228 26.228c.732.732 1.918.732 2.652 0 .732-.732.732-1.919 0-2.652-.734-.732-1.92-.732-2.652 0-.732.733-.732 1.92 0 2.652"/>
        <path fill="#CBCCD3" d="M20.576 28.88c.732.731 1.919.731 2.652 0 .732-.733.732-1.92 0-2.653-.733-.732-1.92-.732-2.652 0-.732.734-.732 1.92 0 2.652"/>
        <path fill="#F5A623" d="M15.262 15.886c0 1.035.84 1.875 1.875 1.875 1.035 0 1.875-.84 1.875-1.875 0-1.035-.84-1.875-1.875-1.875-1.035 0-1.875.84-1.875 1.875"/>
        <path fill="#F5A623" d="M22.06 13.614L18.696 16.979 16.044 14.328 19.408 10.962zM15.174 28.88c-.732.731-.732 1.92 0 2.651.732.732 1.919.732 2.652 0 .732-.732.732-1.92 0-2.652-.733-.732-1.92-.732-2.652 0"/>
        <path fill="#F5A623" d="M12.523 26.228c-.732.732-.732 1.918 0 2.652.732.732 1.918.732 2.652 0 .732-.734.732-1.92 0-2.652-.734-.732-1.92-.732-2.652 0"/>
        <path fill="#F5A623" d="M9.871 23.576c-.732.732-.732 1.919 0 2.652.732.732 1.919.732 2.652 0 .732-.733.732-1.92 0-2.652-.733-.732-1.92-.732-2.652 0"/>
    </g>
</svg>
