<svg xmlns="http://www.w3.org/2000/svg" width="36" height="36" viewBox="0 0 36 36">
    <g fill="none" fill-rule="evenodd">
        <path fill="#CBCCD3" d="M31.875 33H4.125C3.504 33 3 32.496 3 31.875V4.125C3 3.504 3.504 3 4.125 3s1.125.504 1.125 1.125V30.75h26.625c.621 0 1.125.504 1.125 1.125S32.496 33 31.875 33"/>
        <path fill="#50A4FA" d="M24 27.75v-21c0-.414.336-.75.75-.75h3c.414 0 .75.336.75.75v21c0 .414-.336.75-.75.75h-3c-.414 0-.75-.336-.75-.75"/>
        <path fill="#3CB9A0" d="M16.5 27.75v-16.5c0-.414.336-.75.75-.75h3c.414 0 .75.336.75.75v16.5c0 .414-.336.75-.75.75h-3c-.414 0-.75-.336-.75-.75"/>
        <path fill="#F5A623" d="M9 27.75v-12c0-.414.336-.75.75-.75h3c.414 0 .75.336.75.75v12c0 .414-.336.75-.75.75h-3c-.414 0-.75-.336-.75-.75"/>
    </g>
</svg>
