<svg xmlns="http://www.w3.org/2000/svg" width="52" height="52" viewBox="0 0 52 52">
    <g fill="none" fill-rule="evenodd">
        <path fill="#CBCCD3" d="M43.333 21.667c0 11.388-13.303 24.44-16.6 27.499-.415.386-1.052.386-1.465 0-3.298-3.06-16.601-16.111-16.601-27.5 0-9.572 7.76-17.333 17.333-17.333 9.572 0 17.333 7.761 17.333 17.334"/>
        <path fill="#FFF" d="M39 21.667c0 7.178-5.822 13-13 13s-13-5.822-13-13c0-7.179 5.822-13 13-13s13 5.822 13 13"/>
        <path fill="#4F67FF" d="M30.524 18.946c-.048-.102-.15-.167-.262-.167h-3.424l3.378-5.335c.056-.088.06-.203.009-.294-.05-.093-.148-.15-.254-.15H25.35c-.109 0-.208.06-.258.16l-4.333 8.667c-.046.089-.04.195.013.28.052.084.143.136.244.136h2.971l-3.237 7.688c-.054.134-.007.286.117.36.045.027.097.043.15.043.082 0 .164-.037.22-.102l9.243-10.979c.076-.084.09-.206.044-.307"/>
    </g>
</svg>
