<svg xmlns="http://www.w3.org/2000/svg" width="36" height="36"><g fill="none" fill-rule="evenodd"><path fill="#4F67FF" d="M19.12 12v1.822c1.183.108 2.174.403 2.981.873l-1.214 2.168c-.696-.49-1.383-.738-2.06-.738-.415 0-.755.09-1.015.265-.261.175-.394.372-.394.593 0 .202.106.392.312.575.206.182.48.327.818.434l.967.303c1.081.34 1.858.76 2.341 1.257.479.498.718 1.143.718 1.936 0 .48-.057.91-.18 1.28a2.616 2.616 0 01-.59.994c-.27.29-.627.548-1.07.768-.442.223-.98.422-1.613.602V27h-1.505v-1.793c-.34 0-.698-.035-1.081-.114a8.725 8.725 0 01-1.128-.298 7.734 7.734 0 01-1.04-.44 3.704 3.704 0 01-.793-.52l1.325-2.273c1.024.835 2.024 1.25 2.997 1.25.4 0 .755-.1 1.056-.3.3-.2.451-.46.451-.782 0-.442-.355-.77-1.067-.98l-.935-.27a9.357 9.357 0 01-1.42-.527 3.587 3.587 0 01-.968-.663 2.444 2.444 0 01-.556-.852c-.12-.318-.18-.68-.18-1.093 0-.43.068-.848.207-1.247.136-.403.342-.763.62-1.078a3.596 3.596 0 011.037-.8c.418-.215.907-.348 1.475-.398V12h1.505z"/><path fill="#50A4FA" d="M28.5 6H24v2.25h3a.75.75 0 01.75.75v21a.75.75 0 01-.75.75H9a.75.75 0 01-.75-.75V9A.75.75 0 019 8.25h3V6H7.5C6.67 6 6 6.67 6 7.5v24c0 .83.67 1.5 1.5 1.5h21c.83 0 1.5-.67 1.5-1.5v-24c0-.83-.67-1.5-1.5-1.5"/><path fill="#CBCCD3" d="M18 6c-.83 0-1.5-.67-1.5-1.5S17.17 3 18 3s1.5.67 1.5 1.5S18.83 6 18 6m3.75-1.5H21a3.001 3.001 0 00-6 0h-.75a.75.75 0 00-.75.75v3c0 .414.336.75.75.75h7.5a.75.75 0 00.75-.75v-3a.75.75 0 00-.75-.75"/></g></svg>