<svg xmlns="http://www.w3.org/2000/svg" width="53" height="52" viewBox="0 0 53 52">
    <g fill="none" fill-rule="evenodd">
        <path fill="#CBCCD3" d="M39 8.667h-4.333v3.25h2.166c.598 0 1.084.485 1.084 1.083v30.333c0 .598-.486 1.084-1.084 1.084H15.167c-.598 0-1.084-.486-1.084-1.084V13c0-.598.486-1.083 1.084-1.083h2.166v-3.25H13c-1.198 0-2.167.968-2.167 2.166V45.5c0 1.198.969 2.167 2.167 2.167h26c1.198 0 2.167-.969 2.167-2.167V10.833c0-1.198-.969-2.166-2.167-2.166" transform="translate(.4)"/>
        <path stroke="#F5A623" stroke-linecap="round" stroke-linejoin="round" d="M26 21.961L20.726 27.234 18.317 24.821" transform="translate(.4)"/>
        <path fill="#CBCCD3" d="M33.583 28.167h-6.5c-.598 0-1.083-.486-1.083-1.084 0-.598.485-1.083 1.083-1.083h6.5c.598 0 1.084.485 1.084 1.083s-.486 1.084-1.084 1.084" transform="translate(.4)"/>
        <path stroke="#50A4FA" stroke-linecap="round" stroke-linejoin="round" d="M26 32.794L20.726 38.068 18.317 35.654" transform="translate(.4)"/>
        <path fill="#CBCCD3" d="M33.583 39h-6.5C26.485 39 26 38.515 26 37.917s.485-1.084 1.083-1.084h6.5c.598 0 1.084.486 1.084 1.084 0 .598-.486 1.083-1.084 1.083" transform="translate(.4)"/>
        <path fill="#3CB9A0" d="M26 10.833c-1.198 0-2.167-.968-2.167-2.166 0-1.199.969-2.167 2.167-2.167s2.167.968 2.167 2.167c0 1.198-.969 2.166-2.167 2.166m5.417-2.166h-1.084c0-2.392-1.941-4.334-4.333-4.334-2.392 0-4.333 1.942-4.333 4.334h-1.084c-.598 0-1.083.485-1.083 1.083v4.333c0 .598.485 1.084 1.083 1.084h10.834c.598 0 1.083-.486 1.083-1.084V9.75c0-.598-.485-1.083-1.083-1.083" transform="translate(.4)"/>
    </g>
</svg>
