<svg xmlns="http://www.w3.org/2000/svg" width="53" height="52" viewBox="0 0 53 52">
    <g fill="none" fill-rule="evenodd">
        <path fill="#CBCCD3" d="M25.458 10.833c-12.844 0-23.291 10.448-23.291 23.292 0 .897.728 1.625 1.625 1.625h4.333c.897 0 1.625-.728 1.625-1.625S9.022 32.5 8.125 32.5H5.499c.345-4.268 2.022-8.16 4.628-11.254l1.926 1.924c.316.319.73.477 1.148.477.416 0 .832-.158 1.149-.477.635-.635.635-1.662 0-2.296l-1.935-1.935c3.124-2.685 7.074-4.422 11.418-4.773v2.626c0 .897.728 1.625 1.625 1.625s1.625-.728 1.625-1.625v-2.626c4.345.35 8.294 2.088 11.419 4.773l-1.935 1.935c-.635.635-.635 1.662 0 2.296.316.319.732.477 1.148.477.418 0 .832-.158 1.148-.477l1.927-1.924c2.606 3.094 4.283 6.986 4.628 11.254h-2.626c-.897 0-1.625.728-1.625 1.625s.728 1.625 1.625 1.625h4.333c.897 0 1.625-.728 1.625-1.625 0-12.844-10.448-23.292-23.292-23.292" transform="translate(.8)"/>
        <path fill="#FB6164" d="M29.792 38.458c0 2.392-1.942 4.334-4.334 4.334-2.392 0-4.333-1.942-4.333-4.334 0-2.392 1.941-4.333 4.333-4.333 2.392 0 4.334 1.941 4.334 4.333" transform="translate(.8)"/>
        <path fill="#FB6164" d="M22.016 38.52L9.362 30.076c-.21-.147-.262-.433-.119-.641.13-.187.37-.252.57-.163l13.793 6.414c.823.368 1.19 1.336.819 2.158-.368.819-1.335 1.187-2.156.816-.086-.036-.177-.09-.253-.14" transform="translate(.8)"/>
    </g>
</svg>
