<svg xmlns="http://www.w3.org/2000/svg" width="36" height="36" viewBox="0 0 36 36">
    <g fill="none" fill-rule="evenodd">
        <path fill="#F5A623" d="M17.975 14.212c2.045.016 3.705 1.683 3.705 3.732h11.207c0-8.24-6.704-14.945-14.943-14.945h-.002l.033 11.213z"/>
        <path fill="#50A4FA" d="M11.79 22.774c-.815-1.09-1.318-2.43-1.318-3.897 0-3.285 2.444-5.985 5.603-6.443v-7.52C8.775 5.399 3 11.457 3 18.878c0 3.534 1.317 6.748 3.474 9.216l5.316-5.32z"/>
        <path fill="#3CB9A0" d="M23.453 19.812c-.458 3.159-3.158 5.602-6.443 5.602-1.466 0-2.807-.502-3.9-1.32l-5.314 5.318c2.462 2.159 5.681 3.476 9.214 3.476 7.42 0 13.479-5.777 13.963-13.076h-7.52z"/>
    </g>
</svg>
