<svg xmlns="http://www.w3.org/2000/svg" width="53" height="52" viewBox="0 0 53 52">
    <path fill="#F5A623"
        d="M25.808 19.024v10.36l8.862 5.258c.514.307 1.181.136 1.484-.38l.544-.916c.306-.513.134-1.179-.379-1.482l-7.079-4.197v-8.643c0-.598-.485-1.083-1.083-1.083h-1.265c-.598 0-1.084.485-1.084 1.083"
        transform="translate(-1426.000000, -393.000000) translate(1382.400000, 373.000000) translate(44.000000, 20.000000)" />
    <path fill="#CBCCD3"
        d="M28.642 6.507c-11.64-.306-21.14 9.03-21.14 20.588h-4.25c-.966 0-1.449 1.167-.764 1.848l7.06 7.065.163.332 7.387-7.397c.68-.683.197-1.848-.77-1.848h-4.25c0-9.893 8.98-17.7 19.233-15.704 6.244 1.213 11.277 6.246 12.49 12.49 1.996 10.253-5.81 19.234-15.705 19.234-4.052 0-7.742-1.517-10.556-3.993-.436-.384-1.084-.388-1.493.021l-1.71 1.712c-.433.433-.435 1.157.02 1.567 3.638 3.273 8.448 5.269 13.728 5.269 11.59 0 20.936-9.557 20.598-21.212C48.37 15.73 39.39 6.791 28.642 6.507"
        transform="translate(-1426.000000, -393.000000) translate(1382.400000, 373.000000) translate(44.000000, 20.000000)" />
</svg>