<svg xmlns="http://www.w3.org/2000/svg" width="174" height="213"><g fill="none" fill-rule="evenodd"><rect width="55" height="55" x="101.5" y="-13.5" fill="#FFF" stroke="#F7F9FC" rx="27.5"/><path fill="#F5A623" d="M135.5 10.8l-.3-.2h-4.6l4.5-7.2a.4.4 0 00-.3-.6h-6.2c-.2 0-.3 0-.4.2l-5.8 11.7a.4.4 0 00.3.6h4l-4.3 10.3a.4.4 0 00.6.4l12.5-14.8v-.4"/><path fill="#E0E0E3" d="M123.1 6c-.2 0-.4 0-.6-.2l-3.1-3.1a.9.9 0 011.2-1.3l3.1 3.1a.9.9 0 01-.6 1.5m-1.7 4.3H117a.9.9 0 110-1.7h4.4a.9.9 0 010 1.7m16.2 16.3c-.2 0-.4 0-.6-.2l-3-3.1a.9.9 0 011.2-1.3l3 3.1a.9.9 0 01-.6 1.5m3-7.4h-4.4a.9.9 0 010-1.7h4.4a.9.9 0 010 1.8"/><rect width="47" height="47" x="78.5" y="69.5" fill="#FFF" stroke="#F7F9FC" rx="23.5"/><path fill="#CBCCD3" d="M112.3 100v2H91.7v-2c0-.3-.3-.6-.6-.6h-1.3c-.4 0-.7.3-.7.7v5.1c0 .4.3.7.7.7h24.4c.4 0 .7-.3.7-.7v-5.1c0-.4-.3-.7-.7-.7H113c-.3 0-.6.3-.6.7"/><path fill="#50A4FA" d="M108.6 92.8l-6.1 6.2c-.3.2-.7.2-1 0l-6.1-6.2a.6.6 0 01.4-1h3.6v-11c0-.4.3-.7.6-.7h4c.3 0 .6.3.6.7v11h3.6c.5 0 .8.6.4 1"/><rect width="35" height="35" x="52.5" y="144.5" fill="#FFF" stroke="#F7F9FC" rx="17.5"/><path fill="#FB6164" d="M65 157.1l4.7-4.6c.1-.2.5-.2.6 0l4.7 4.6c.3.3 0 .8-.4.8H72v8.2c0 .3-.2.5-.4.5h-3a.5.5 0 01-.4-.5V158h-2.7a.5.5 0 01-.4-.8"/><path fill="#CBCCD3" d="M77.7 167.3v1.4H62.3v-1.4c0-.3-.2-.5-.5-.5h-1c-.2 0-.4.2-.4.5v3.9c0 .2.2.4.4.4h18.4c.2 0 .4-.2.4-.4v-3.9c0-.3-.2-.5-.4-.5h-1c-.3 0-.5.2-.5.5"/><rect width="47" height="47" x="4.5" y="21.5" fill="#FFF" stroke="#F7F9FC" rx="23.5"/><g><path fill="#CBCCD3" d="M39.6 57.5H16.4a1 1 0 01-.9-1v-23a1 1 0 011.9 0v22.1h22.2a1 1 0 010 1.9"/><path fill="#50A4FA" d="M33 53.1V35.6c0-.3.3-.6.6-.6h2.5c.4 0 .6.3.6.6v17.5c0 .4-.2.6-.6.6h-2.5a.6.6 0 01-.6-.6"/><path fill="#3CB9A0" d="M26.8 53.1V39.4c0-.4.2-.6.6-.6h2.5c.3 0 .6.2.6.6V53c0 .4-.3.6-.6.6h-2.5a.6.6 0 01-.6-.6"/><path fill="#F5A623" d="M20.5 53.1v-10c0-.3.3-.6.6-.6h2.5c.4 0 .6.3.6.6v10c0 .4-.2.6-.6.6h-2.5a.6.6 0 01-.6-.6"/></g></g></svg>