<svg xmlns="http://www.w3.org/2000/svg" width="174" height="213"><g fill="none" fill-rule="evenodd"><g transform="translate(101 61)"><rect width="43" height="43" x=".5" y=".5" fill="#FFF" stroke="#F7F9FC" rx="21.5"/><path d="M33 27.4L27.4 33c-.2.2-.6.2-.8 0L21 27.4a.6.6 0 01.4-1h3.3v-8.7c0-.3.2-.6.5-.6h3.6c.3 0 .5.3.5.6v8.7h3.3c.5 0 .8.7.4 1M9.3 16.1l5.6-5.6c.3-.2.6-.2.9 0l5.5 5.6c.4.4.2 1-.4 1h-3.2v8.7c0 .4-.3.6-.6.6h-3.5a.6.6 0 01-.6-.6v-8.7H9.8a.6.6 0 01-.5-1" fill="#3CB9A0"/></g><g transform="translate(57 131)"><rect width="43" height="43" x=".5" y=".5" fill="#FFF" stroke="#F7F9FC" rx="21.5"/><path fill="#CBCCD3" d="M12.8 17.8v-4c0-.5.3-.8.7-.8h4a.8.8 0 010 1.5h-3.3v3.3a.8.8 0 01-1.4 0zm.7 13.2a.8.8 0 01-.8-.8v-4a.8.8 0 011.6 0v3.3h3.2a.8.8 0 010 1.5h-4zm15.8-13.3v-3.2H26a.8.8 0 010-1.5h4c.4 0 .8.3.8.8v4a.8.8 0 01-1.6 0zM26 31a.8.8 0 010-1.5h3.3v-3.3a.8.8 0 011.4 0v4c0 .5-.3.8-.7.8h-4z"/><path fill="#FB6164" d="M31.8 22.8h-20a.8.8 0 010-1.6h20a.8.8 0 010 1.6"/></g><g transform="translate(13 11)"><rect width="55" height="55" x=".5" y=".5" fill="#FFF" stroke="#F7F9FC" rx="27.5"/><g transform="translate(10 10)"><path fill="#F5A623" d="M32.5 16.4c.3.3.3.8 0 1l-7.2 7.3A.8.8 0 0124 24V20h-8.2a.8.8 0 01-.8-.7v-4.5c0-.4.3-.8.8-.8H24V9.8c0-.7.8-1 1.3-.6l7.2 7.2z"/><circle cx="8.3" cy="17.3" r="3.8" fill="#CBCCD3" fill-rule="nonzero"/></g></g></g></svg>