<svg width="24" height="24" viewBox="0 0 24 24" xmlns="http://www.w3.org/2000/svg">
    <g fill="none" fill-rule="evenodd">
        <path d="M18.821 9.5a.75.75 0 0 1-.539-1.271l2-2.071a.75.75 0 1 1 1.078 1.041l-2 2.072a.743.743 0 0 1-.539.229M4.821 9.5a.744.744 0 0 1-.53-.22L2.22 7.209A.75.75 0 1 1 3.28 6.148L5.351 8.22a.749.749 0 0 1-.53 1.28M11.821 7.5a.75.75 0 0 1-.75-.75v-3a.75.75 0 0 1 1.5 0v3a.75.75 0 0 1-.75.75" fill="#F5A623"/>
        <path d="M21.387 14.14a.984.984 0 0 1 0 1.22c-1.251 1.593-5.06 5.39-9.565 5.39-4.506 0-8.315-3.797-9.566-5.39a.984.984 0 0 1 0-1.22c1.25-1.592 5.06-5.39 9.566-5.39 4.505 0 8.314 3.798 9.565 5.39" fill="#E0E0E3"/>
        <path d="M16.821 14.75a5 5 0 0 1-5 5 5 5 0 0 1-5-5 5 5 0 0 1 5-5 5 5 0 0 1 5 5" fill="#3CB9A0"/>
    </g>
</svg>
