<svg width="20" height="20" xmlns="http://www.w3.org/2000/svg">
    <path d="M10 15.06c-2.79 0-5.06-2.27-5.06-5.06 0-2.79 2.27-5.06 5.06-5.06 2.79 0 5.06 2.27 5.06 5.06 0 2.79-2.27 5.06-5.06 5.06m8.09-6.331-1.484-.496a6.816 6.816 0 0 0-.686-1.654l.699-1.4a.359.359 0 0 0-.067-.412l-1.319-1.32a.359.359 0 0 0-.413-.066l-1.399.699a6.816 6.816 0 0 0-1.654-.686l-.496-1.483a.356.356 0 0 0-.338-.244H9.067a.356.356 0 0 0-.338.244l-.496 1.483a6.816 6.816 0 0 0-1.654.686l-1.4-.699a.359.359 0 0 0-.412.067l-1.32 1.319a.359.359 0 0 0-.066.413l.699 1.399a6.816 6.816 0 0 0-.686 1.654l-1.483.496a.356.356 0 0 0-.244.338v1.866c0 .154.098.29.244.338l1.483.496c.157.585.388 1.141.686 1.654l-.699 1.4a.359.359 0 0 0 .067.412l1.319 1.32c.11.108.275.135.413.066l1.399-.699a6.816 6.816 0 0 0 1.654.686l.496 1.483a.356.356 0 0 0 .338.244h1.866c.154 0 .29-.098.338-.244l.496-1.483a6.816 6.816 0 0 0 1.654-.686l1.4.699a.359.359 0 0 0 .412-.067l1.32-1.319a.359.359 0 0 0 .066-.413l-.699-1.399a6.816 6.816 0 0 0 .686-1.654l1.483-.496a.356.356 0 0 0 .244-.338V9.067a.356.356 0 0 0-.244-.338" fill="#3CB9A0" fill-rule="evenodd"/>
</svg>
