<svg width="24" height="24" viewBox="0 0 24 24" xmlns="http://www.w3.org/2000/svg">
    <g fill="#50A4FA" fill-rule="evenodd">
        <path d="m3.486 20.683 2.568-2.793C7.66 19.805 9.97 21 12.55 21c3.852 0 7.132-2.668 8.361-6.398a.95.95 0 0 0 .053-.162c.024-.092.036-.186.036-.285 0-.477-.266-.907-.692-1.061-.613-.22-1.19.13-1.374.68-.005.02-.013.04-.02.06-1.04 3.154-3.378 4.915-6.364 4.915-2.007 0-3.813-.944-5.037-2.443l2.569-2.797c.176-.19.047-.512-.206-.509-1.606.022-5.508.01-6.592.005a.293.293 0 0 0-.284.301v7.168c0 .269.309.402.486.209M20.514 3.317 17.946 6.11C16.34 4.195 14.03 3 11.45 3 7.598 3 4.318 5.668 3.089 9.398a.95.95 0 0 0-.053.162A1.108 1.108 0 0 0 3 9.845c0 .477.266.907.692 1.061.613.22 1.19-.13 1.374-.68.005-.02.013-.04.02-.06 1.04-3.154 3.378-4.915 6.364-4.915 2.007 0 3.813.944 5.037 2.443l-2.569 2.797c-.176.19-.047.512.206.509 1.606-.022 5.508-.01 6.592-.005a.293.293 0 0 0 .284-.301V3.526c0-.269-.309-.402-.486-.209"/>
    </g>
</svg>
