<svg width="20" height="20" viewBox="0 0 20 20" xmlns="http://www.w3.org/2000/svg">
    <g fill="none" fill-rule="evenodd">
        <path d="M3.805 1.667a2.14 2.14 0 0 0-2.138 2.138v12.162l2.967-.311.6-6.247-.6-7.742h-.829z" fill="#72BEFC"/>
        <path d="M9.84 1.667H4.635v13.056l5.207-.546v.075l5.783-.516V2.5a.833.833 0 0 0-.834-.833H9.84z" fill="#50A4FA"/>
        <path d="M11.74 6.453a.111.111 0 0 0-.1-.064h-1.318l1.3-2.051a.11.11 0 0 0 .003-.114.11.11 0 0 0-.098-.057H9.75a.11.11 0 0 0-.1.061L7.985 7.562a.11.11 0 0 0 .005.107.11.11 0 0 0 .094.053h1.143L7.98 10.678a.111.111 0 0 0 .045.139.11.11 0 0 0 .142-.023l3.555-4.222a.11.11 0 0 0 .017-.119" fill="#4F67FF"/>
        <path d="M4.293 14.251c-.958 0-1.734.777-1.734 1.734l.001.05a1.733 1.733 0 0 0 1.733 1.684H14.84V14.25H4.293z" fill="#F7FCFF"/>
        <path d="M3.966 14.715H14.79l.833-.979H3.966c-1.268 0-2.3 1.03-2.3 2.298s1.032 2.3 2.3 2.3H14.79v-.978H9.84l-5.207-.002h-.668a1.32 1.32 0 0 1 0-2.64" fill="#E0E0E3"/>
        <path d="M12.75 16.417h-7.5A.419.419 0 0 1 4.833 16c0-.229.188-.416.417-.416h7.5c.229 0 .416.187.416.416a.418.418 0 0 1-.416.417" fill="#E0E0E3"/>
        <path d="M14.793 11.252a3.545 3.545 0 0 0-3.541 3.54 3.545 3.545 0 0 0 3.54 3.541 3.545 3.545 0 0 0 3.541-3.54 3.545 3.545 0 0 0-3.54-3.541" fill="#F5A623"/>
        <path fill="#FFF" d="M14.3 14.294v2.639h.98v-2.64h-.49zM14.79 13.803a.49.49 0 1 0 0-.98.49.49 0 0 0 0 .98"/>
    </g>
</svg>
