<svg width="20" height="20" xmlns="http://www.w3.org/2000/svg">
    <g fill="none" fill-rule="evenodd">
        <path fill="#FFF" d="M4.167 3.333h11.667v15H4.167z"/>
        <path d="M15.833 3.333h-2.5v1.25H15c.23 0 .417.187.417.417v11.667c0 .23-.187.416-.417.416H5a.417.417 0 0 1-.417-.416V5c0-.23.187-.417.417-.417h1.667v-1.25h-2.5a.833.833 0 0 0-.834.834V17.5c0 .46.373.833.834.833h11.666c.461 0 .834-.372.834-.833V4.167a.833.833 0 0 0-.834-.834" fill="#50A4FA"/>
        <path d="M10.623 6.667v1.012c.656.06 1.207.224 1.655.485l-.674 1.204c-.387-.272-.768-.41-1.144-.41-.231 0-.42.05-.565.148-.145.097-.219.207-.219.329 0 .112.06.218.174.32.115.1.267.181.454.24l.538.169c.6.189 1.032.422 1.3.699.266.276.399.634.399 1.075 0 .266-.032.505-.1.71a1.46 1.46 0 0 1-.327.553c-.151.162-.349.305-.595.427a5.152 5.152 0 0 1-.896.335V15h-.836v-.996c-.189 0-.388-.02-.601-.064a4.77 4.77 0 0 1-.626-.165 4.233 4.233 0 0 1-.578-.244 2.047 2.047 0 0 1-.441-.29l.736-1.262c.57.464 1.125.695 1.665.695.222 0 .42-.056.587-.167.166-.111.25-.256.25-.435 0-.246-.197-.428-.592-.544l-.52-.15a5.138 5.138 0 0 1-.789-.293 1.983 1.983 0 0 1-.537-.368 1.363 1.363 0 0 1-.31-.474 1.712 1.712 0 0 1-.1-.607c0-.239.039-.47.116-.693a1.74 1.74 0 0 1 .344-.599c.155-.176.347-.323.576-.444.233-.12.504-.193.82-.22V6.666h.836z" fill="#4F67FF"/>
        <path d="M10 3.333a.833.833 0 1 1-.002-1.665A.833.833 0 0 1 10 3.333m2.083-.833h-.416a1.667 1.667 0 0 0-3.334 0h-.416a.417.417 0 0 0-.417.417v1.666c0 .23.187.417.417.417h4.166c.23 0 .417-.187.417-.417V2.917a.417.417 0 0 0-.417-.417" fill="#CBCCD3"/>
    </g>
</svg>
