<svg width="24" height="24" xmlns="http://www.w3.org/2000/svg">
    <path d="M12 1.5c5.788 0 10.5 4.71 10.5 10.5 0 5.788-4.712 10.5-10.5 10.5S1.5 17.788 1.5 12C1.5 6.21 6.212 1.5 12 1.5zm0 2.25c-4.548 0-8.25 3.7-8.25 8.25 0 4.548 3.702 8.25 8.25 8.25s8.25-3.702 8.25-8.25c0-4.55-3.702-8.25-8.25-8.25zm4.845 4.01c.478.398.543 1.108.144 1.585l-6 7.5c-.203.243-.498.39-.813.403-.018.002-.033.002-.051.002-.297 0-.585-.119-.795-.33l-3-3a1.124 1.124 0 1 1 1.59-1.59l2.128 2.128 5.213-6.553a1.123 1.123 0 0 1 1.584-.144z" fill="#4AD051" fill-rule="evenodd"/>
</svg>
