<svg width="24" height="24" xmlns="http://www.w3.org/2000/svg">
    <g fill="none" fill-rule="evenodd">
        <path d="M2.75 7.75v-4A.75.75 0 0 1 3.5 3h4a.75.75 0 0 1 0 1.5H4.25v3.25a.75.75 0 0 1-1.5 0zM3.5 21a.75.75 0 0 1-.75-.75v-4a.75.75 0 0 1 1.5 0v3.25H7.5a.75.75 0 0 1 0 1.5h-4zM19.25 7.75V4.5H16A.75.75 0 0 1 16 3h4a.75.75 0 0 1 .75.75v4a.75.75 0 0 1-1.5 0zM16 21a.75.75 0 0 1 0-1.5h3.25v-3.25a.75.75 0 0 1 1.5 0v4A.75.75 0 0 1 20 21h-4z" fill="#CBCCD3"/>
        <path d="M21.75 12.75h-20a.75.75 0 0 1 0-1.5h20a.75.75 0 0 1 0 1.5" fill="#FB6164"/>
    </g>
</svg>
