<svg width="24" height="24" viewBox="0 0 24 24" xmlns="http://www.w3.org/2000/svg">
    <g fill="none" fill-rule="evenodd">
        <path d="M9.045 14.546a.744.744 0 0 1-.192-.33 4.315 4.315 0 0 1-.162-1.24 4.67 4.67 0 0 1 1.38-3.344l4.243-4.243a4.755 4.755 0 0 1 6.717 0 4.756 4.756 0 0 1 0 6.718l-4.243 4.243a4.741 4.741 0 0 1-4.579 1.218.75.75 0 1 1 .391-1.448 3.237 3.237 0 0 0 3.128-.832l4.243-4.242a3.257 3.257 0 0 0 0-4.597 3.257 3.257 0 0 0-4.597 0l-4.242 4.243a3.196 3.196 0 0 0-.94 2.293c-.005.28.03.554.107.832a.75.75 0 0 1-1.254.729" fill="#4F67FF"/>
        <path d="M3.389 17.375a4.756 4.756 0 0 1 0-6.718l4.243-4.243a4.745 4.745 0 0 1 4.579-1.219c.4.111.636.52.53.92a.752.752 0 0 1-.92.529 3.236 3.236 0 0 0-3.128.832L4.45 11.718a3.254 3.254 0 0 0 0 4.596 3.254 3.254 0 0 0 4.596 0l4.242-4.243a3.186 3.186 0 0 0 .94-2.294 2.848 2.848 0 0 0-.107-.83.751.751 0 0 1 1.447-.399c.115.417.17.835.16 1.24a4.668 4.668 0 0 1-1.38 3.344l-4.241 4.243a4.756 4.756 0 0 1-6.718 0" fill="#50A4FA"/>
    </g>
</svg>
