<svg xmlns="http://www.w3.org/2000/svg" xmlns:xlink="http://www.w3.org/1999/xlink" width="36" height="36"><defs><path id="a" d="M18 3a15 15 0 110 30 15 15 0 010-30zm6.8 6.7H11.2A3.2 3.2 0 008 12.8v7.6c0 1.7 1.4 3.1 3.2 3.1h4.7l1.6 2.6v.1a.5.5 0 001 0l1.6-2.7h4.7c1.8 0 3.2-1.4 3.2-3.1v-7.6c0-1.7-1.4-3.1-3.2-3.1zm-1.2 5.5c.7 0 1 .5 1 .5v-.4h1.2v3.5c0 1.8-1.5 1.9-1.7 1.9h-.5v-1.1h.3c.8 0 .7-.9.7-.9v-.3c-.3.4-.9.5-1 .5-1.6 0-1.7-1.6-1.7-1.8 0-1.8 1.4-1.9 1.7-2zm-12.2-1.5v2c.5-.5 1-.5 1-.5 1.7 0 1.8 1.8 1.8 1.8 0 1.9-1.8 2-1.8 2-.7 0-1-.6-1-.6v.4h-1.2v-5h1.2zm7.8 1.5c2 0 2 1.6 2 1.9 0 1.8-2 1.8-2 1.8-2.1 0-2-1.8-2-1.8 0-1.8 1.7-1.9 2-2zm-4.6-1.6c1.6 0 1.7 1.7 1.7 1.9v3.3h-1.2v-3c0-1-.5-1-.5-1zm-2.4 2.7a.8.8 0 100 1.6.8.8 0 000-1.6zm7 0a.8.8 0 100 1.6.8.8 0 000-1.6zm4.7 0a.8.8 0 100 1.6.8.8 0 000-1.6z"/></defs><g fill="none" fill-rule="evenodd"><mask id="b" fill="#fff"><use xlink:href="#a"/></mask><use fill="#585A6C" fill-rule="nonzero" xlink:href="#a"/><path fill="#292A2F" d="M0 0h36v36H0z" mask="url(#b)"/></g></svg>