<?xml version="1.0" encoding="UTF-8"?>
<svg width="24px" height="24px" viewBox="0 0 24 24" version="1.1" xmlns="http://www.w3.org/2000/svg" xmlns:xlink="http://www.w3.org/1999/xlink">
    <title>Glyphs/linkedin</title>
    <defs>
        <path d="M12,2 C17.5227778,2 22,6.47722222 22,12 C22,17.5227778 17.5227778,22 12,22 L12,22 L11.7200986,21.9961581 C6.32673817,21.8479294 2,17.4291714 2,12 C2,6.47722222 6.47722222,2 12,2 Z M8.93305556,9.68527778 L6.40944444,9.68527778 L6.40944444,17.8333333 L8.93305556,17.8333333 L8.93305556,9.68527778 Z M15.4233333,9.43611111 C13.6941667,9.43611111 12.9663889,10.7827778 12.9663889,10.7827778 L12.9663889,10.7827778 L12.9663889,9.68527778 L10.5463889,9.68527778 L10.5463889,17.8333333 L12.9663889,17.8333333 L12.9663889,13.5561111 C12.9663889,12.41 13.4941667,11.7280556 14.5038889,11.7280556 C15.4319444,11.7280556 15.8775,12.3833333 15.8775,13.5561111 L15.8775,13.5561111 L15.8775,17.8333333 L18.3888889,17.8333333 L18.3888889,12.6744444 C18.3888889,10.4916667 17.1516667,9.43611111 15.4233333,9.43611111 Z M7.65916667,5.61111111 C6.83472222,5.61111111 6.16666667,6.28444444 6.16666667,7.11472222 C6.16666667,7.945 6.83472222,8.61833333 7.65916667,8.61833333 C8.48333333,8.61833333 9.15111111,7.945 9.15111111,7.11472222 C9.15111111,6.28444444 8.48333333,5.61111111 7.65916667,5.61111111 Z" id="path-1"></path>
    </defs>
    <g id="Glyphs/linkedin" stroke="none" stroke-width="1" fill="none" fill-rule="evenodd">
        <mask id="mask-2" fill="white">
            <use xlink:href="#path-1"></use>
        </mask>
        <use id="Combined-Shape" fill="#292A2F" xlink:href="#path-1"></use>
    </g>
</svg>