<svg width="24" height="24" xmlns="http://www.w3.org/2000/svg">
    <g fill="none" fill-rule="evenodd">
        <path d="M3.562 9.812h6.25v-6.25h-6.25v6.25zM10.594 2H2.781A.781.781 0 0 0 2 2.781v7.813c0 .431.35.781.781.781h7.813c.431 0 .781-.35.781-.781V2.781A.781.781 0 0 0 10.594 2z" fill="#F5A623"/>
        <path d="M20.438 20.438h-5.146l5.146-5.146v5.146zm1.08-7.753a.78.78 0 0 0-.852.168l-7.813 7.813A.78.78 0 0 0 13.407 22h7.812a.78.78 0 0 0 .782-.782v-7.812a.78.78 0 0 0-.483-.722z" fill="#3CB9A0"/>
        <path d="M17.313 9.813a3.127 3.127 0 0 1-3.125-3.126 3.127 3.127 0 0 1 3.124-3.125 3.127 3.127 0 0 1 3.125 3.126 3.127 3.127 0 0 1-3.125 3.125m0-7.813a4.692 4.692 0 0 0-4.687 4.688 4.692 4.692 0 0 0 4.688 4.686A4.692 4.692 0 0 0 22 6.687a4.692 4.692 0 0 0-4.688-4.686" fill="#50A4FA"/>
        <path d="m11.146 13.959-3.354 3.354 3.354 3.353a.782.782 0 0 1-1.105 1.105l-3.354-3.354-3.353 3.354a.783.783 0 0 1-1.106-1.105l3.355-3.353-3.355-3.354a.782.782 0 1 1 1.106-1.105l3.353 3.354 3.354-3.354a.782.782 0 0 1 1.105 1.105" fill="#CBCCD3"/>
    </g>
</svg>
