<svg xmlns="http://www.w3.org/2000/svg" xmlns:xlink="http://www.w3.org/1999/xlink" width="36" height="36"><defs><path id="a" d="M18 3a15 15 0 110 30 15 15 0 010-30zm-3.2 8.3h-5v.3l1.6 2c.2 0 .3.3.3.5v7.4c0 .2 0 .5-.3.7l-1.7 2.2v.2h5v-.2l-1.8-2.2a.9.9 0 01-.2-.7V15l4.4 9.5h.5l3.7-9.5v8l-1.4 1.3v.3h6.6v-.3L25 23a.4.4 0 01-.1-.4v-9.4l.1-.4 1.4-1.3v-.3h-4.7l-3.3 8.3-3.7-8.3z"/></defs><g fill="none" fill-rule="evenodd"><mask id="b" fill="#fff"><use xlink:href="#a"/></mask><use fill="#585A6C" fill-rule="nonzero" xlink:href="#a"/><path fill="#292A2F" d="M0 0h36v36H0z" mask="url(#b)"/></g></svg>