<svg xmlns="http://www.w3.org/2000/svg" width="36" height="36"><path d="M18 3a15 15 0 110 30 15 15 0 010-30zm0 7h-3.3c-.8 0-1.4.2-2 .4a4 4 0 00-1.4 1 4 4 0 00-.9 1.4l-.4 1.9V21.3c0 .9.2 1.4.4 2 .2.5.5 1 1 1.4.4.4.8.7 1.4.9l1.9.4h6.6c.8 0 1.4-.2 2-.4a4 4 0 001.4-1 4 4 0 00.9-1.4l.4-1.9v-4-2.6a6 6 0 00-.4-2 4 4 0 00-1-1.4 4 4 0 00-1.4-.9l-1.9-.4h-3zm-.7 1.4h3.9c.8.1 1.2.3 1.5.4.4.1.7.3 1 .6.2.2.4.5.5.9.1.3.3.7.3 1.5v6.4c0 .8-.2 1.2-.3 1.5-.1.4-.3.7-.6 1-.2.2-.5.4-.9.5-.3.1-.7.3-1.5.3h-6.4c-.8 0-1.2-.2-1.5-.3-.4-.1-.7-.3-1-.6-.2-.2-.4-.5-.5-.9-.1-.3-.3-.7-.3-1.5V17a39.6 39.6 0 01.3-3.6c.1-.4.3-.7.6-1 .2-.2.5-.4.9-.5.3-.1.7-.3 1.5-.3h2.5zM18 14a4.1 4.1 0 100 8.2 4.1 4.1 0 000-8.2zm0 1.4a2.7 2.7 0 110 5.4 2.7 2.7 0 010-5.4zm4.3-2.5a1 1 0 100 1.9 1 1 0 000-2z" fill="#292A2F" fill-rule="evenodd"/></svg>