<svg width="36" height="36" xmlns="http://www.w3.org/2000/svg">
    <g fill="none" fill-rule="evenodd">
        <path d="M18 3C9.715 3 3 9.715 3 18s6.715 15 15 15 15-6.715 15-15S26.285 3 18 3m0 2.25c7.03 0 12.75 5.72 12.75 12.75S25.03 30.75 18 30.75 5.25 25.03 5.25 18 10.97 5.25 18 5.25" fill="#CBCCD3"/>
        <path d="M24 16.5h-4.5V12c0-.83-.67-1.5-1.5-1.5s-1.5.67-1.5 1.5v4.5H12c-.83 0-1.5.67-1.5 1.5s.67 1.5 1.5 1.5h4.5V24c0 .83.67 1.5 1.5 1.5s1.5-.67 1.5-1.5v-4.5H24c.83 0 1.5-.67 1.5-1.5s-.67-1.5-1.5-1.5" fill="#F5A623"/>
    </g>
</svg>
