<svg width="24" height="24" xmlns="http://www.w3.org/2000/svg">
    <g fill="none" fill-rule="evenodd">
        <path d="M20.5 6h-11a.5.5 0 0 1-.5-.5v-2a.5.5 0 0 1 .5-.5h11a.5.5 0 0 1 .5.5v2a.5.5 0 0 1-.5.5" fill="#CBCCD3"/>
        <path d="M5.5 6h-2a.5.5 0 0 1-.5-.5v-2a.5.5 0 0 1 .5-.5h2a.5.5 0 0 1 .5.5v2a.5.5 0 0 1-.5.5" fill="#50A4FA"/>
        <path d="M20.5 13h-11a.5.5 0 0 1-.5-.5v-2a.5.5 0 0 1 .5-.5h11a.5.5 0 0 1 .5.5v2a.5.5 0 0 1-.5.5" fill="#CBCCD3"/>
        <path d="M5.5 13h-2a.5.5 0 0 1-.5-.5v-2a.5.5 0 0 1 .5-.5h2a.5.5 0 0 1 .5.5v2a.5.5 0 0 1-.5.5" fill="#50A4FA"/>
        <path d="M20.5 20h-11a.5.5 0 0 1-.5-.5v-2a.5.5 0 0 1 .5-.5h11a.5.5 0 0 1 .5.5v2a.5.5 0 0 1-.5.5" fill="#CBCCD3"/>
        <path d="M5.5 20h-2a.5.5 0 0 1-.5-.5v-2a.5.5 0 0 1 .5-.5h2a.5.5 0 0 1 .5.5v2a.5.5 0 0 1-.5.5" fill="#50A4FA"/>
    </g>
</svg>
