<svg width="24" height="24" xmlns="http://www.w3.org/2000/svg">
    <g fill="none" fill-rule="evenodd">
        <path d="M11.912 8.78v4.782l4.09 2.427a.498.498 0 0 0 .685-.176l.25-.423a.499.499 0 0 0-.174-.684l-3.267-1.936V8.78a.5.5 0 0 0-.5-.5h-.584a.5.5 0 0 0-.5.5" fill="#585A6C"/>
        <path d="M13.22 3.003c-5.373-.14-9.758 4.168-9.758 9.502h-1.96a.5.5 0 0 0-.354.853l3.26 3.261.074.153 3.41-3.414a.5.5 0 0 0-.356-.853H5.574a7.402 7.402 0 0 1 8.877-7.248c2.882.56 5.205 2.883 5.765 5.765a7.402 7.402 0 0 1-7.249 8.877c-1.87 0-3.573-.7-4.872-1.843a.5.5 0 0 0-.689.01l-.789.79c-.2.2-.2.534.01.723a9.439 9.439 0 0 0 6.335 2.432c5.35 0 9.663-4.41 9.507-9.79-.145-4.96-4.289-9.087-9.25-9.218" fill="#F5A623"/>
    </g>
</svg>
