<svg width="24" height="24" xmlns="http://www.w3.org/2000/svg">
    <path d="M12 7.5c5.215 0 9.547 5.969 10.423 7.257a.422.422 0 0 1 0 .488C21.547 16.532 17.215 22.5 12 22.5c-5.214 0-9.546-5.967-10.422-7.255a.422.422 0 0 1 0-.488C2.454 13.469 6.786 7.5 12 7.5zm0 2.25c-3.07 0-6.167 3.135-7.811 5.25 1.643 2.115 4.74 5.25 7.81 5.25 3.071 0 6.167-3.134 7.811-5.25-1.642-2.114-4.74-5.25-7.81-5.25zm0 .75a4.5 4.5 0 1 1 0 9 4.5 4.5 0 0 1 0-9zm1.5 1.5a1.5 1.5 0 1 0 0 3.001 1.5 1.5 0 0 0 0-3.001zm-9-6.84L6.09 6.75a1.124 1.124 0 1 1-1.59 1.59L2.909 6.75A1.124 1.124 0 1 1 4.5 5.16zm16.59 0c.44.438.44 1.15 0 1.59L19.5 8.34c-.22.22-.508.33-.796.33a1.124 1.124 0 0 1-.795-1.92L19.5 5.16c.44-.44 1.152-.44 1.592 0zM12 1.5c.62 0 1.125.504 1.125 1.125v2.25a1.125 1.125 0 0 1-2.25 0v-2.25c0-.621.504-1.125 1.125-1.125z" fill="#F5A623" fill-rule="evenodd"/>
</svg>
