<svg width="24" height="24" xmlns="http://www.w3.org/2000/svg">
    <g fill="none" fill-rule="evenodd">
        <path d="M11.984 9.475a2.492 2.492 0 0 1 2.47 2.488h7.47C21.925 6.47 17.457 2 11.964 2h-.001l.022 7.475z" fill="#F5A623"/>
        <path d="M7.86 15.183a4.32 4.32 0 0 1-.879-2.598c0-2.19 1.63-3.99 3.736-4.295V3.277C5.85 3.599 2 7.637 2 12.585c0 2.356.877 4.499 2.315 6.144l3.545-3.546z" fill="#50A4FA"/>
        <path d="M15.635 13.208c-.305 2.106-2.105 3.735-4.295 3.735a4.326 4.326 0 0 1-2.6-.88l-3.543 3.545a9.288 9.288 0 0 0 6.143 2.317c4.947 0 8.986-3.851 9.309-8.717h-5.014z" fill="#3CB9A0"/>
    </g>
</svg>
