<svg width="24" height="24" viewBox="0 0 24 24" xmlns="http://www.w3.org/2000/svg">
    <g fill="none" fill-rule="evenodd">
        <path d="M15 12a3 3 0 1 1-6 0 3 3 0 0 1 6 0M14.777 16h-1.311a.275.275 0 0 0-.216.104l-1.034 1.292a.278.278 0 0 1-.433 0l-1.033-1.292a.278.278 0 0 0-.217-.104H9.222A2.222 2.222 0 0 0 7 18.223v2.5c0 .153.124.277.277.277h9.445a.277.277 0 0 0 .278-.277v-2.5A2.223 2.223 0 0 0 14.777 16" fill="#50A4FA"/>
        <path d="m22.658 9.886-1.06-.566a9.96 9.96 0 0 0-.926-2.178l.36-1.184a.497.497 0 0 0-.095-.577L18.62 3.063a.497.497 0 0 0-.577-.094l-1.23.373a9.895 9.895 0 0 0-2.083-.848l-.615-1.152A.501.501 0 0 0 13.64 1H10.36a.5.5 0 0 0-.474.342L9.27 2.494a9.938 9.938 0 0 0-2.083.848l-1.229-.373a.497.497 0 0 0-.577.094L3.062 5.38a.5.5 0 0 0-.093.577l.36 1.184A9.963 9.963 0 0 0 2.4 9.32l-1.059.566A.5.5 0 0 0 1 10.36v3.279a.5.5 0 0 0 .342.475l.996.532c.217.832.534 1.622.946 2.354l-.315 1.04a.5.5 0 0 0 .093.578l1.16 1.16 2.07-2.071A7.971 7.971 0 0 1 4 12.108a8 8 0 0 1 8-8 8 8 0 0 1 8 8 7.971 7.971 0 0 1-2.292 5.6l2.07 2.07 1.16-1.16a.497.497 0 0 0 .093-.576L20.716 17a9.914 9.914 0 0 0 .946-2.354l.996-.532A.502.502 0 0 0 23 13.64v-3.28a.501.501 0 0 0-.342-.474" fill="#CBCCD3"/>
    </g>
</svg>
