<svg width="24" height="24" xmlns="http://www.w3.org/2000/svg">
    <g fill="none" fill-rule="evenodd">
        <path d="M4.809 5.549c-.704 0-1.276.578-1.276 1.29V17.16c0 .712.572 1.29 1.276 1.29h14.383c.704 0 1.276-.578 1.276-1.29V6.839c0-.712-.572-1.29-1.276-1.29H4.809zm14.383 14.45H4.809c-1.55 0-2.81-1.272-2.81-2.838V6.839c0-1.565 1.26-2.84 2.81-2.84h14.383C20.74 4 22 5.275 22 6.84V17.16C22 18.727 20.74 20 19.192 20z" fill="#CBCCD3"/>
        <path d="M9 9a2 2 0 1 1-4.001-.001A2 2 0 0 1 9 9" fill="#F5A623"/>
        <path d="M5.5 17h13a.5.5 0 0 0 .5-.5v-3.333a.504.504 0 0 0-.1-.301l-2.585-3.445a.498.498 0 0 0-.719-.084l-5.245 4.371a.5.5 0 0 1-.674-.031l-1.323-1.323a.5.5 0 0 0-.708 0l-2.5 2.5a.5.5 0 0 0-.146.353V16.5a.5.5 0 0 0 .5.5" fill="#3CB9A0"/>
    </g>
</svg>
