<svg width="24" height="24" viewBox="0 0 24 24" xmlns="http://www.w3.org/2000/svg">
    <path d="M11.75 2c5.377 0 9.75 4.374 9.75 9.75s-4.373 9.75-9.75 9.75a.75.75 0 0 1 0-1.5c3.585 0 6.634-2.301 7.77-5.5h-.77a.75.75 0 0 1-.75-.75v-4a.75.75 0 0 1 .75-.75h.77c-1.136-3.199-4.185-5.5-7.77-5.5-3.584 0-6.643 2.299-7.777 5.5h.736a.75.75 0 0 1 .75.75v4a.75.75 0 0 1-.75.75H3.126a.754.754 0 0 1-.687-.447c-.394-.897-.436-1.896-.439-2.219v-.105c0-.686.073-1.356.209-2.002a.764.764 0 0 1 .063-.28C3.305 5.186 7.162 2 11.75 2z" fill="#FFF" fill-rule="evenodd"/>
</svg>
