<svg width="24" height="24" xmlns="http://www.w3.org/2000/svg">
    <g fill="none" fill-rule="evenodd">
        <path d="M4 18.827v3.05C4 22.497 4.497 23 5.11 23h9.779c.614 0 1.111-.503 1.111-1.123v-3.05H4z" fill="#E0E0E3"/>
        <path d="M14.89 1H5.11C4.498 1 4 1.503 4 2.123v16.704h12V2.123C16 1.503 15.503 1 14.89 1" fill="#585A6C"/>
        <path d="M19.5 13h-9a.5.5 0 0 1-.5-.5v-6a.5.5 0 0 1 .5-.5h9a.5.5 0 0 1 .5.5v6a.5.5 0 0 1-.5.5" fill="#E0E0E3"/>
        <path fill="#585A6C" d="M11.93 12h.799V7h-.799zM15.124 12h1.684V7h-1.684zM13.527 12h.798V7h-.798zM17.527 12h.798V7h-.798z"/>
        <path d="M10.344 21.482h-.688a.408.408 0 0 1-.406-.41v-.696c0-.227.182-.41.406-.41h.688c.225 0 .406.183.406.41v.696c0 .226-.181.41-.406.41" fill="#CBCCD3"/>
    </g>
</svg>
