<svg width="24" height="24" viewBox="0 0 24 24" xmlns="http://www.w3.org/2000/svg">
    <g fill="none" fill-rule="evenodd">
        <path d="m21.44 16.646-4.793 4.793a.5.5 0 0 1-.707 0l-4.793-4.793a.5.5 0 0 1 .354-.854h2.793l-.018-7.499a.5.5 0 0 1 .5-.5h3.018a.5.5 0 0 1 .5.5v7.5h2.792a.5.5 0 0 1 .354.853" fill="#50A4FA"/>
        <path d="M1.147 6.94 5.94 2.145a.5.5 0 0 1 .707 0L11.44 6.94a.5.5 0 0 1-.354.854H8.293l.018 7.5a.5.5 0 0 1-.5.5H4.793a.5.5 0 0 1-.5-.5v-7.5H1.501a.5.5 0 0 1-.354-.854" fill="#FB6164"/>
    </g>
</svg>
