<svg width="24" height="24" xmlns="http://www.w3.org/2000/svg">
    <g fill="none" fill-rule="evenodd">
        <path d="M20.5 21h-19a.501.501 0 0 1-.5-.5v-19c0-.275.225-.5.5-.5h19c.275 0 .5.225.5.5v19c0 .275-.225.5-.5.5" fill="#3CB9A0"/>
        <path d="M18.5 19h-15a.501.501 0 0 1-.5-.5v-15c0-.275.225-.5.5-.5h15c.275 0 .5.225.5.5v15c0 .275-.225.5-.5.5" fill="#FFF"/>
        <path fill="#3CB9A0" d="M16 16h-3L6 6h3z"/>
        <path fill="#3CB9A0" d="M6 16h3l7-10h-3z"/>
        <path d="M12 17.5a5.5 5.5 0 1 0 11.001-.001A5.5 5.5 0 0 0 12 17.5" fill="#4F67FF"/>
        <path d="M16.5 21a.5.5 0 0 0 .5-.5v-6.207l-2.854 2.853a.502.502 0 0 0 .708.708L16 16.707V20.5a.5.5 0 0 0 .5.5M18.5 14.293a.5.5 0 0 0-.5.5V21l2.854-2.853a.502.502 0 0 0-.708-.708L19 18.586v-3.793a.5.5 0 0 0-.5-.5" fill="#FFF"/>
    </g>
</svg>
