<svg width="24" height="24" xmlns="http://www.w3.org/2000/svg">
    <g fill="none" fill-rule="evenodd">
        <path d="M21.25 22H2.75a.75.75 0 0 1-.75-.75V2.75a.75.75 0 0 1 1.5 0V20.5h17.75a.75.75 0 0 1 0 1.5" fill="#CBCCD3"/>
        <path d="M16 18.5v-14a.5.5 0 0 1 .5-.5h2a.5.5 0 0 1 .5.5v14a.5.5 0 0 1-.5.5h-2a.5.5 0 0 1-.5-.5" fill="#50A4FA"/>
        <path d="M11 18.5v-11a.5.5 0 0 1 .5-.5h2a.5.5 0 0 1 .5.5v11a.5.5 0 0 1-.5.5h-2a.5.5 0 0 1-.5-.5" fill="#3CB9A0"/>
        <path d="M6 18.5v-8a.5.5 0 0 1 .5-.5h2a.5.5 0 0 1 .5.5v8a.5.5 0 0 1-.5.5h-2a.5.5 0 0 1-.5-.5" fill="#F5A623"/>
    </g>
</svg>
