<svg width="24" height="24" xmlns="http://www.w3.org/2000/svg">
    <g fill="none" fill-rule="evenodd">
        <path d="m21.911 19.254-1.34-3.397V4.43c0-.786-.643-1.429-1.428-1.429H4.857c-.786 0-1.429.643-1.429 1.429v11.428l-1.34 3.397c-.231.38.018.889.436.889h18.953c.417 0 .666-.509.434-.889" fill="#CBCCD3"/>
        <path d="M18.429 4.428H5.57a.716.716 0 0 0-.714.715v7.817c0 .393.322.714.714.714H18.43a.716.716 0 0 0 .714-.714V5.143a.716.716 0 0 0-.714-.715M14.387 17.286h-4.75l-.494 1.428h5.714z" fill="#585A6C"/>
    </g>
</svg>
