<svg width="20" height="20" xmlns="http://www.w3.org/2000/svg" xmlns:xlink="http://www.w3.org/1999/xlink">
    <defs>
        <path d="M16.25 10.833V8.75h.33c.052.34.087.687.087 1.042s-.035.7-.087 1.041h-.33zm-12.951 0h-.252c-.14-.52-.13-1.022-.13-1.041 0-.354.027-.703.08-1.042h.302v2.083zm6.493-9.166c4.48 0 8.125 3.645 8.125 8.125s-3.645 8.125-8.125 8.125a.625.625 0 0 1 0-1.25c2.987 0 5.528-1.918 6.474-4.584h-.64a.625.625 0 0 1-.625-.625V8.125c0-.345.28-.625.625-.625h.64c-.946-2.666-3.487-4.583-6.474-4.583A6.886 6.886 0 0 0 3.311 7.5h.613c.345 0 .625.28.625.625v3.333c0 .345-.28.625-.625.625h-1.32a.628.628 0 0 1-.572-.372c-.32-.731-.361-1.543-.365-1.83v-.107c0-.571.06-1.13.174-1.668a.637.637 0 0 1 .052-.234c.86-3.55 4.076-6.205 7.9-6.205z" id="a"/>
    </defs>
    <g fill="none" fill-rule="evenodd">
        <use fill="#3CB9A0" xlink:href="#a"/>
        <path d="M7.292 9.583a.625.625 0 0 1-.625-.625v-.833a.625.625 0 0 1 1.25 0v.833c0 .345-.28.625-.625.625M12.292 9.583a.625.625 0 0 1-.625-.625v-.833a.625.625 0 0 1 1.25 0v.833c0 .345-.28.625-.625.625M9.792 13.333c-1.1 0-2.133-.598-2.693-1.56a.624.624 0 0 1 .54-.94h4.307a.624.624 0 0 1 .54.94 3.133 3.133 0 0 1-2.694 1.56z" fill="#585A6C"/>
    </g>
</svg>
