<svg xmlns="http://www.w3.org/2000/svg" xmlns:xlink="http://www.w3.org/1999/xlink" width="24" height="24" viewBox="0 0 24 24">
    <defs>
        <path id="m2me3yppya" d="M15.083 5.194c.698-.847 1.17-2.022 1.04-3.194-1.005.04-2.223.67-2.945 1.515-.647.75-1.213 1.945-1.062 3.094 1.123.088 2.268-.57 2.967-1.415m2.519 7.433c-.026-2.533 2.065-3.748 2.159-3.808-1.175-1.72-3.005-1.955-3.657-1.982-1.558-.158-3.04.917-3.83.917-.788 0-2.008-.894-3.3-.87-1.697.025-3.263.987-4.137 2.507-1.763 3.06-.451 7.595 1.268 10.077.84 1.215 1.841 2.58 3.156 2.53 1.267-.05 1.746-.819 3.277-.819 1.531 0 1.961.82 3.302.795 1.362-.026 2.226-1.239 3.06-2.457.965-1.41 1.362-2.775 1.385-2.845-.03-.013-2.657-1.02-2.683-4.045"/>
    </defs>
    <g fill="none" fill-rule="evenodd">
        <mask id="l4mhpnh02b" fill="#fff">
            <use xlink:href="#m2me3yppya"/>
        </mask>
        <use fill="#292A2F" xlink:href="#m2me3yppya"/>
        <path fill="#292A2F" d="M0 0H24V24H0z" mask="url(#l4mhpnh02b)"/>
    </g>
</svg>
