<svg xmlns="http://www.w3.org/2000/svg" xmlns:xlink="http://www.w3.org/1999/xlink" width="149" height="44" viewBox="0 0 149 44">
    <defs>
        <linearGradient id="ndijozsp6b" x1="98.302%" x2="-298.592%" y1="1.966%" y2="1.966%">
            <stop offset="0%" stop-color="#FBDA09"/>
            <stop offset="100%" stop-color="#FFBC00"/>
        </linearGradient>
        <linearGradient id="3219845sue" x1="98.302%" x2="60.079%" y1="50.035%" y2="50.035%">
            <stop offset="0%" stop-color="#FBDA09"/>
            <stop offset="100%" stop-color="#FFBC00"/>
        </linearGradient>
        <linearGradient id="l9wxnve0vh" x1="-.699%" x2="-.699%" y1="2.007%" y2="350.303%">
            <stop offset="0%" stop-color="#01E2FF"/>
            <stop offset="100%" stop-color="#01C4FF"/>
        </linearGradient>
        <linearGradient id="dkz2h16szk" x1="37.352%" x2="54.662%" y1="58.861%" y2="39.34%">
            <stop offset="0%" stop-color="#01E2FF"/>
            <stop offset="100%" stop-color="#01C4FF"/>
        </linearGradient>
        <linearGradient id="qj1t5140fn" x1="-11.141%" x2="-11.141%" y1="-7.721%" y2="340.575%">
            <stop offset="0%" stop-color="#28D781"/>
            <stop offset="100%" stop-color="#02F076"/>
        </linearGradient>
        <linearGradient id="crc5y16doq" x1="8.208%" x2="81.372%" y1="25.302%" y2="68.083%">
            <stop offset="0%" stop-color="#28D781"/>
            <stop offset="100%" stop-color="#02F076"/>
        </linearGradient>
        <linearGradient id="5bomgp8wmt" x1="-4.899%" x2="-4.899%" y1="49.267%" y2="397.563%">
            <stop offset="0%" stop-color="#F2414E"/>
            <stop offset="100%" stop-color="#E02554"/>
        </linearGradient>
        <linearGradient id="7hvejcoj3w" x1="72.997%" x2="4.855%" y1="34.842%" y2="71.136%">
            <stop offset="0%" stop-color="#F2414E"/>
            <stop offset="100%" stop-color="#E02554"/>
        </linearGradient>
        <path id="u9fyvd4g3a" d="M.764 2.818c0-1.183.594-1.869 1.457-1.869.349 0 .742.112 1.158.349l20.508 11.664c1.444.821 1.444 2.153 0 2.974L3.379 27.6c-1.443.822-2.615.143-2.615-1.52V2.818z"/>
        <path id="thiuxfhwed" d="M.764 2.818c0-1.183.594-1.869 1.457-1.869.349 0 .742.112 1.158.349l20.508 11.664c1.444.821 1.444 2.153 0 2.974L3.379 27.6c-1.443.822-2.615.143-2.615-1.52V2.818z"/>
        <path id="ktplvnmy3g" d="M1.194.41l12.901 12.822L1.151 26.435c-.246-.318-.387-.777-.387-1.355V1.818c0-.61.158-1.089.43-1.409z"/>
        <path id="1j2us1ofpj" d="M1.194.41l12.901 12.822L1.151 26.435c-.246-.318-.387-.777-.387-1.355V1.818c0-.61.158-1.089.43-1.409z"/>
        <path id="my6niifvcm" d="M.194 1.409c.255-.3.61-.46 1.027-.46.349 0 .742.112 1.158.349l15.21 8.65-4.495 4.288L.194 1.409z"/>
        <path id="puv2k2h9ip" d="M.194 1.409c.255-.3.61-.46 1.027-.46.349 0 .742.112 1.158.349l15.21 8.65-4.495 4.288L.194 1.409z"/>
        <path id="xh633ztt0s" d="M17.708 4.882L2.379 13.6c-.962.548-1.804.429-2.258-.205L13.096.233l4.612 4.649z"/>
        <path id="ofsw3o3ymv" d="M17.708 4.882L2.379 13.6c-.962.548-1.804.429-2.258-.205L13.096.233l4.612 4.649z"/>
    </defs>
    <g fill="none" fill-rule="evenodd">
        <g>
            <g>
                <g>
                    <g transform="translate(-1394 -7470) translate(0 7344) translate(1394 80) translate(0 46)">
                        <rect width="148" height="42.92" x=".5" y=".5" fill="#000" stroke="#A6A6A6" rx="6"/>
                        <g fill="#FFF">
                            <path d="M33.2 7.2c-1.988 0-3.6-1.612-3.6-3.6S31.212 0 33.2 0s3.6 1.612 3.6 3.6-1.612 3.6-3.6 3.6zm0-1.1c1.38 0 2.5-1.12 2.5-2.5s-1.12-2.5-2.5-2.5-2.5 1.12-2.5 2.5 1.12 2.5 2.5 2.5zM8.8 4v2.2h2.9V7h-4V.3h4v.8H8.8v2.1h2.6V4H8.8zM15.6 1.1V7h-1.1V1.1h-1.7V.3h4.5v.8h-1.7zM25.4 1.1V7h-1.1V1.1h-1.7V.3h4.5v.8h-1.7zM20.5.3H21.6V7H20.5zM38.8.3h.2l3 4.902V.3h1.1V7H42l-3.2-5.23V7h-1.1V.3h1.1z" transform="translate(45.6 7.4)"/>
                            <g>
                                <path d="M3.578 3.217L6.59 3.217 6.56 4.17 3.578 4.17z" transform="translate(45.6 7.4) translate(0 .1)"/>
                                <path d="M5.997.974l-.689.689c-.43-.44-1.04-.68-1.745-.68-1.408 0-2.55 1.14-2.55 2.547 0 1.406 1.142 2.547 2.55 2.547S5.971 5.263 5.97 3.53c.003-.107 0-.212-.007-.313h.88v.035c.33 2.428-1.324 3.825-3.308 3.808C1.582 7.057 0 5.48 0 3.53 0 1.58 1.582 0 3.534 0c1.02 0 1.877.356 2.463.974z" transform="translate(45.6 7.4) translate(0 .1)"/>
                            </g>
                        </g>
                        <g fill="#FFF">
                            <g>
                                <path d="M.5 0h5.67s3.263.555 3.263 4.303c0 3.748-3.264 4.303-3.264 4.303H.5V0zm1.1 2.082V6.7h3.849S7.2 6.7 7.2 4.39c0-2.308-1.751-2.308-1.751-2.308H1.6z" transform="translate(45.1 19.2) translate(62.4 .5)"/>
                                <path d="M0 0H2V14H0z" transform="translate(45.1 19.2) translate(62.4 .5)"/>
                            </g>
                            <path d="M73 .5H75V14.5H73zM82.413 13.499c-.551.455-1.432.882-2.823.97-3.186.198-3.188-2.71-3.188-2.906 0-.196-.157-2.567 2.378-2.944 1.795-.267 3.052.178 3.633.46v-.411c-.143-.545-.585-1.546-1.91-1.546-1.821 0-2.224.984-2.224.984l-1.666-.984s.933-1.922 3.73-1.922c3.478 0 4.07 2.399 4.07 3.207V14.496h-2v-.997zM82.27 10.5s-3.853-1.038-3.987 1.126c-.134 2.165 3.696 1.126 4.039-.409 0-.488-.052-.717-.052-.717zM88.166 13.969L84.6 5.5h2l2.566 6.094 2.545-6.046h2L88.3 18.4h-2l1.866-4.431zM57.923 8.773l-6.326 2.614s.409 1.446 2.31 1.455c1.49.008 2.33-1.32 2.33-1.32l1.605 1.087s-1.295 2.095-3.947 2.095c-3.26 0-4.695-2.85-4.695-4.701 0-1.783 1.14-4.803 4.493-4.803 3.353 0 4.23 3.573 4.23 3.573zm-2.407-.741s-.796-1.21-2.016-.988c-2.582.473-2.257 2.732-2.257 2.732l4.273-1.744zM46.2.5H48.316V14.471H46.2zM42.814 5.504l1.956.017v8.815c0 2.252-1.341 4.63-4.498 4.63s-4.176-2.798-4.176-2.798l1.796-.755s.548 1.724 2.474 1.724c2.192 0 2.448-1.995 2.448-2.678v-.957s-.758 1.188-2.643 1.188c-2.043 0-4.471-1.75-4.471-4.735 0-2.984 2.286-4.691 4.495-4.754 1.769-.05 2.619 1.174 2.619 1.174v-.871zm-2.476 7.394c1.426 0 2.583-1.306 2.583-2.918s-1.157-2.918-2.583-2.918c-1.426 0-2.583 1.306-2.583 2.918s1.157 2.918 2.583 2.918zM30.06 14.7c-2.629 0-4.76-2.127-4.76-4.75s2.131-4.75 4.76-4.75c2.63 0 4.761 2.127 4.761 4.75s-2.131 4.75-4.76 4.75zm-.03-1.863c1.478 0 2.676-1.292 2.676-2.887s-1.198-2.887-2.676-2.887c-1.478 0-2.676 1.292-2.676 2.887s1.198 2.887 2.676 2.887zM19.76 14.7c-2.629 0-4.76-2.127-4.76-4.75s2.131-4.75 4.76-4.75c2.63 0 4.761 2.127 4.761 4.75s-2.131 4.75-4.76 4.75zm-.03-1.863c1.478 0 2.676-1.292 2.676-2.887s-1.198-2.887-2.676-2.887c-1.478 0-2.676 1.292-2.676 2.887s1.198 2.887 2.676 2.887z" transform="translate(45.1 19.2)"/>
                            <g>
                                <path d="M7.468 6.706L13.753 6.706 13.691 8.693 7.468 8.693z" transform="translate(45.1 19.2)"/>
                                <path d="M12.516 2.03l-1.438 1.436c-.897-.915-2.171-1.417-3.641-1.417-2.939 0-5.321 2.377-5.321 5.309 0 2.932 2.382 5.309 5.32 5.309 2.94 0 5.026-1.695 5.021-5.31.005-.222 0-.44-.015-.651h1.836v.074c.691 5.06-2.763 7.973-6.904 7.936C3.302 14.71 0 11.42 0 7.358 0 3.294 3.302 0 7.374 0c2.13 0 3.919.742 5.142 2.03z" transform="translate(45.1 19.2)"/>
                            </g>
                        </g>
                        <g>
                            <g transform="translate(10 7) translate(0 .768)">
                                <mask id="6qs5r7mdfc" fill="#fff">
                                    <use xlink:href="#u9fyvd4g3a"/>
                                </mask>
                                <path fill="url(#ndijozsp6b)" d="M0.745 28.478L25.385 28.478 25.385 0.4 0.745 0.4z" mask="url(#6qs5r7mdfc)"/>
                            </g>
                            <g transform="translate(10 7) translate(0 .768)">
                                <mask id="j38w7z5i0f" fill="#fff">
                                    <use xlink:href="#thiuxfhwed"/>
                                </mask>
                                <path fill="url(#3219845sue)" d="M0.746 28.478L25.385 28.478 25.385 0.4 0.746 0.4z" mask="url(#j38w7z5i0f)"/>
                            </g>
                            <g transform="translate(10 7) translate(0 1.768)">
                                <mask id="shes120t1i" fill="#fff">
                                    <use xlink:href="#ktplvnmy3g"/>
                                </mask>
                                <path fill="url(#l9wxnve0vh)" d="M0.745 27.478L25.385 27.478 25.385 -0.6 0.745 -0.6z" mask="url(#shes120t1i)"/>
                            </g>
                            <g transform="translate(10 7) translate(0 1.768)">
                                <mask id="jmuisno9fl" fill="#fff">
                                    <use xlink:href="#1j2us1ofpj"/>
                                </mask>
                                <path fill="url(#dkz2h16szk)" d="M0.746 26.848L14.095 13.232 0.746 -0.036z" mask="url(#jmuisno9fl)"/>
                            </g>
                            <g transform="translate(10 7) translate(1 .768)">
                                <mask id="h70aau5byo" fill="#fff">
                                    <use xlink:href="#my6niifvcm"/>
                                </mask>
                                <path fill="url(#qj1t5140fn)" d="M-0.255 28.478L24.385 28.478 24.385 0.4 -0.255 0.4z" mask="url(#h70aau5byo)"/>
                            </g>
                            <g transform="translate(10 7) translate(1 .768)">
                                <mask id="l0996up6rr" fill="#fff">
                                    <use xlink:href="#puv2k2h9ip"/>
                                </mask>
                                <path fill="url(#crc5y16doq)" d="M-0.254 0.4L-0.254 0.963 13.094 14.236 17.878 9.672 0.956 0.4z" mask="url(#l0996up6rr)"/>
                            </g>
                            <g transform="translate(10 7) translate(1 14.768)">
                                <mask id="tejkq2uhtu" fill="#fff">
                                    <use xlink:href="#xh633ztt0s"/>
                                </mask>
                                <path fill="url(#5bomgp8wmt)" d="M-0.255 14.478L24.385 14.478 24.385 -13.6 -0.255 -13.6z" mask="url(#tejkq2uhtu)"/>
                            </g>
                            <g transform="translate(10 7) translate(1 14.768)">
                                <mask id="9jh2my5d1x" fill="#fff">
                                    <use xlink:href="#ofsw3o3ymv"/>
                                </mask>
                                <path fill="url(#7hvejcoj3w)" d="M-0.254 13.775L-0.254 14.478 0.085 14.478 20.421 7.616 13.096 0.233z" mask="url(#9jh2my5d1x)"/>
                            </g>
                        </g>
                    </g>
                </g>
            </g>
        </g>
    </g>
</svg>
