<svg xmlns="http://www.w3.org/2000/svg" width="48" height="48" viewBox="0 0 48 48">
    <g fill="none" fill-rule="evenodd">
        <path fill="#F5A623" d="M35.186 18.533c-.11-.234-.346-.384-.606-.384h-7.898l7.796-12.312c.13-.204.138-.464.02-.678-.116-.212-.342-.344-.584-.344H23.248c-.254 0-.484.142-.598.368l-10 20c-.102.206-.09.452.03.648.124.196.336.318.568.318h6.856l-7.47 17.74c-.128.304-.014.656.266.828.108.066.228.098.346.098.192 0 .382-.082.512-.238l21.334-25.334c.166-.198.204-.476.094-.71"/>
        <path fill="#E0E0E3" d="M13.914 10.314c-.384 0-.768-.146-1.06-.44L7.538 4.56c-.584-.586-.584-1.536 0-2.122.586-.584 1.536-.584 2.122 0l5.314 5.316c.586.586.586 1.534 0 2.12-.292.294-.676.44-1.06.44M11.014 17.658H3.5c-.828 0-1.5-.672-1.5-1.5s.672-1.5 1.5-1.5h7.514c.828 0 1.5.672 1.5 1.5s-.672 1.5-1.5 1.5M38.814 45.658c-.384 0-.768-.146-1.06-.44l-5.316-5.314c-.584-.586-.584-1.536 0-2.122.586-.584 1.536-.584 2.122 0l5.314 5.316c.586.586.586 1.534 0 2.12-.292.294-.676.44-1.06.44M43.914 33h-7.516c-.828 0-1.5-.672-1.5-1.5s.672-1.5 1.5-1.5h7.516c.828 0 1.5.672 1.5 1.5s-.672 1.5-1.5 1.5"/>
    </g>
</svg>
